<?xml version="1.0" encoding="UTF-8"?>
<svg xmlns="http://www.w3.org/2000/svg" version="1.1" viewBox="0 0 450 300">
  <defs>
    <style>
      .cls-1 {
        isolation: isolate;
      }

      .cls-2 {
        fill: #fbc33b;
      }

      .cls-3 {
        fill: none;
      }

      .cls-3, .cls-4 {
        stroke: #000;
        stroke-miterlimit: 10;
      }

      .cls-4 {
        stroke-width: 2px;
      }

      .cls-4, .cls-5 {
        fill: #1a1a1a;
      }
    </style>
  </defs>
  <!-- Generator: Adobe Illustrator 28.7.2, SVG Export Plug-In . SVG Version: 1.2.0 Build 154)  -->
  <g>
    <g id="Layer_1">
      <rect class="cls-5" width="450" height="300"/>
      <rect class="cls-4" x="15" y="15" width="420" height="30"/>
      <rect class="cls-4" x="15" y="60" width="200" height="30"/>
      <rect class="cls-4" x="235" y="60" width="200" height="30"/>
      <rect class="cls-4" x="14.5" y="105" width="200" height="30"/>
      <rect class="cls-4" x="234.5" y="105" width="200" height="30"/>
      <rect class="cls-4" x="14.5" y="150" width="200" height="45"/>
      <rect class="cls-4" x="234.5" y="150" width="200" height="45"/>
      <rect class="cls-4" x="14.5" y="210" width="200" height="74"/>
      <rect class="cls-4" x="234.5" y="210" width="200" height="74"/>
      <rect class="cls-2" x="20" y="20" width="150" height="20"/>
      <g class="cls-1">
        <g class="cls-1">
          <path d="M26.2,34.3c-.6,0-1.2-.1-1.7-.3-.5-.2-.9-.6-1.2-1-.3-.4-.4-1-.4-1.6v-.3h1.6v.3c0,.5.2.9.5,1.1s.7.4,1.3.4.9-.1,1.2-.3.4-.5.4-.8,0-.4-.2-.6c-.1-.1-.3-.3-.6-.4-.3,0-.6-.2-.9-.3h-.3c-.6-.2-1.1-.4-1.5-.5-.4-.2-.7-.5-.9-.8-.2-.3-.3-.7-.3-1.2s.1-1,.4-1.3c.2-.4.6-.6,1-.8.4-.2,1-.3,1.6-.3s1.1.1,1.6.3.8.5,1.1.9c.3.4.4.9.4,1.5v.4h-1.6v-.4c0-.3,0-.6-.2-.8-.1-.2-.3-.3-.5-.4-.2,0-.5-.1-.8-.1-.5,0-.8,0-1.1.3-.2.2-.3.4-.3.7s0,.4.2.5c.1.1.3.3.5.4.2,0,.5.2.8.3h.3c.6.2,1.1.4,1.6.6.4.2.8.5,1,.8.2.3.4.7.4,1.3s-.1,1-.4,1.3c-.3.4-.6.7-1.1.9s-1,.3-1.7.3Z"/>
          <path d="M33.4,34.3c-.6,0-1.1-.1-1.6-.4-.5-.2-.8-.6-1.1-1s-.4-1-.4-1.7v-.2c0-.6.1-1.2.4-1.7s.6-.8,1.1-1c.5-.2,1-.4,1.6-.4s1.1.1,1.5.3c.4.2.7.5,1,.8s.4.7.5,1.2l-1.5.3c0-.2-.1-.5-.2-.6-.1-.2-.3-.3-.5-.5-.2-.1-.5-.2-.8-.2s-.6,0-.8.2c-.2.1-.4.3-.6.6-.1.3-.2.6-.2,1h0c0,.5,0,.8.2,1.1s.3.5.6.6c.2.1.5.2.8.2.5,0,.8-.1,1-.4.2-.2.4-.5.5-.9l1.5.3c-.1.4-.3.8-.5,1.2s-.6.6-1,.8c-.4.2-.9.3-1.5.3Z"/>
        </g>
        <g class="cls-1">
          <path d="M37.8,34.1v-6h1.5v.7h.2c0-.2.2-.4.4-.5.2-.1.4-.2.7-.2h.7v1.3h-.7c-.4,0-.7.1-.9.3-.2.2-.4.5-.4.9v3.4h-1.5Z"/>
        </g>
        <g class="cls-1">
          <path d="M44.9,34.3c-.6,0-1.1-.1-1.6-.4-.5-.3-.8-.6-1.1-1.1s-.4-1-.4-1.6h0c0-.8.1-1.3.4-1.8s.6-.8,1-1.1c.4-.3,1-.4,1.6-.4s1.1.1,1.5.4c.4.3.8.6,1,1.1.2.5.4,1,.4,1.6v.5h-4.3c0,.4.2.7.5,1s.6.4,1.1.4.7,0,.9-.3c.2-.2.4-.4.5-.6l1.2.6c-.1.2-.3.4-.5.7-.2.2-.5.5-.8.6s-.8.3-1.3.3ZM43.4,30.5h2.8c0-.3-.2-.6-.4-.8-.2-.2-.6-.3-1-.3s-.7.1-1,.3c-.2.2-.4.5-.4.8Z"/>
          <path d="M49.6,34.1l-.8-6h1.5l.5,4.9h.2l.8-4.9h2.4l.8,4.9h.2l.5-4.9h1.5l-.8,6h-2.5l-.8-4.9h-.2l-.8,4.9h-2.5Z"/>
        </g>
        <g class="cls-1">
          <path d="M61,34.3c-.5,0-.9-.1-1.3-.4-.4-.2-.7-.6-1-1s-.4-1-.4-1.7v-.2c0-.6.1-1.2.4-1.7.2-.5.6-.8,1-1,.4-.2.9-.4,1.3-.4s.7,0,.9.1.4.2.6.3c.2.1.3.3.3.4h.2v-3.1h1.5v8.4h-1.5v-.7h-.2c-.1.2-.3.4-.6.6-.3.2-.7.3-1.2.3ZM61.4,33c.5,0,.9-.1,1.2-.4.3-.3.5-.7.5-1.3h0c0-.7-.2-1.1-.5-1.4-.3-.3-.7-.5-1.2-.5s-.9.1-1.2.5c-.3.3-.5.7-.5,1.3h0c0,.7.2,1.1.5,1.4.3.3.7.4,1.2.4Z"/>
          <path d="M66.2,34.1v-6h1.5v.7h.2c0-.2.2-.4.4-.5.2-.1.4-.2.7-.2h.7v1.3h-.7c-.4,0-.7.1-.9.3-.2.2-.4.5-.4.9v3.4h-1.5Z"/>
          <path d="M71.7,27.5c-.3,0-.5,0-.7-.3s-.3-.4-.3-.7,0-.5.3-.7.4-.3.7-.3.5,0,.7.3.3.4.3.7,0,.5-.3.7-.4.3-.7.3ZM71,34.1v-6h1.5v6h-1.5Z"/>
        </g>
        <g class="cls-1">
          <path d="M75.2,34.1l-1.9-6h1.6l1.4,4.8h.2l1.4-4.8h1.6l-1.9,6h-2.4Z"/>
        </g>
        <g class="cls-1">
          <path d="M83,34.3c-.6,0-1.1-.1-1.6-.4-.5-.3-.8-.6-1.1-1.1s-.4-1-.4-1.6h0c0-.8.1-1.3.4-1.8s.6-.8,1-1.1c.4-.3,1-.4,1.6-.4s1.1.1,1.5.4c.4.3.8.6,1,1.1.2.5.4,1,.4,1.6v.5h-4.3c0,.4.2.7.5,1s.6.4,1.1.4.7,0,.9-.3c.2-.2.4-.4.5-.6l1.2.6c-.1.2-.3.4-.5.7-.2.2-.5.5-.8.6s-.8.3-1.3.3ZM81.5,30.5h2.8c0-.3-.2-.6-.4-.8-.2-.2-.6-.3-1-.3s-.7.1-1,.3c-.2.2-.4.5-.4.8Z"/>
        </g>
        <g class="cls-1">
          <path d="M87.3,34.1v-6h1.5v.7h.2c0-.2.2-.4.4-.5.2-.1.4-.2.7-.2h.7v1.3h-.7c-.4,0-.7.1-.9.3s-.4.5-.4.9v3.4h-1.5Z"/>
        </g>
        <g class="cls-1">
          <path d="M94.3,34.3c-.8,0-1.4-.2-1.9-.5s-.8-.8-.9-1.4l1.4-.4c0,.3.1.5.3.7.1.2.3.3.5.3.2,0,.4.1.6.1.4,0,.6,0,.8-.2s.3-.3.3-.5,0-.3-.2-.4c-.2,0-.4-.2-.8-.2h-.3c-.4-.1-.8-.2-1.1-.4-.3-.1-.6-.3-.8-.6-.2-.2-.3-.6-.3-1,0-.6.2-1,.6-1.4.4-.3,1-.5,1.7-.5s1.2.1,1.7.4.7.7.9,1.2l-1.4.4c0-.3-.2-.5-.4-.6-.2-.1-.4-.2-.7-.2s-.5,0-.7.2c-.2,0-.2.2-.2.4s0,.3.2.4.4.2.6.2h.3c.4.1.9.2,1.2.4.4.1.7.3.9.6.2.2.3.6.3,1,0,.6-.2,1.1-.7,1.4s-1.1.5-1.8.5Z"/>
          <path d="M103.1,34.1c-.5,0-.9,0-1.3-.3-.4-.2-.7-.4-.9-.8s-.3-.7-.3-1.2,0-.6.2-.9.3-.5.5-.6c.2-.2.5-.3.7-.4v-.2c-.4-.1-.7-.3-1-.6-.3-.3-.4-.7-.4-1.2s.1-.9.3-1.2.5-.6.9-.8.8-.3,1.3-.3h1.3v1.2h-1c-.4,0-.7,0-.9.3-.2.2-.4.5-.4.9s0,.5.2.6c.1.2.3.3.5.4s.4.1.6.1h1.2v-1.1h1.5v1.1h1.1v1.2h-1.1v3.6h-3ZM103.4,32.9h1.2v-2.4h-1.2c-.4,0-.6.1-.9.3-.2.2-.4.5-.4.9s.1.7.4.9.5.3.9.3Z"/>
        </g>
        <g class="cls-1">
          <path d="M111.9,34.1l-1.1-8.4h1.6l.8,7.3h.2l1.1-7.3h2.7l1.1,7.3h.2l.8-7.3h1.6l-1.1,8.4h-2.7l-1.1-7.5h-.2l-1.1,7.5h-2.7Z"/>
        </g>
        <g class="cls-1">
          <path d="M121.9,34.1v-6h1.5v.7h.2c0-.2.2-.4.4-.5.2-.1.4-.2.7-.2h.7v1.3h-.7c-.4,0-.7.1-.9.3-.2.2-.4.5-.4.9v3.4h-1.5Z"/>
        </g>
        <g class="cls-1">
          <path d="M129.1,34.3c-.6,0-1.1-.1-1.6-.4-.5-.3-.8-.6-1.1-1.1s-.4-1-.4-1.6h0c0-.8.1-1.3.4-1.8s.6-.8,1-1.1,1-.4,1.6-.4,1.1.1,1.5.4c.4.3.8.6,1,1.1.2.5.4,1,.4,1.6v.5h-4.3c0,.4.2.7.5,1s.6.4,1.1.4.7,0,.9-.3c.2-.2.4-.4.5-.6l1.2.6c-.1.2-.3.4-.5.7-.2.2-.5.5-.8.6-.4.2-.8.3-1.3.3ZM127.6,30.5h2.8c0-.3-.2-.6-.4-.8s-.6-.3-1-.3-.7.1-1,.3-.4.5-.4.8Z"/>
          <path d="M133.3,34.1v-6h1.5v.8h.2c0-.2.3-.4.5-.6.3-.2.7-.3,1.2-.3s.9.1,1.2.3c.3.2.6.5.8.9.2.4.3.8.3,1.3v3.6h-1.5v-3.4c0-.4-.1-.8-.3-1-.2-.2-.5-.3-.9-.3s-.8.2-1.1.5c-.3.3-.4.7-.4,1.3v3h-1.5Z"/>
          <path d="M143.5,34.3c-.6,0-1.1-.1-1.6-.4-.5-.2-.8-.6-1.1-1-.3-.5-.4-1-.4-1.7v-.2c0-.6.1-1.2.4-1.7.3-.5.6-.8,1.1-1s1-.4,1.6-.4,1.1.1,1.5.3c.4.2.7.5,1,.8s.4.7.5,1.2l-1.5.3c0-.2-.1-.5-.2-.6-.1-.2-.3-.3-.5-.5-.2-.1-.5-.2-.8-.2s-.6,0-.8.2c-.2.1-.4.3-.6.6-.1.3-.2.6-.2,1h0c0,.5,0,.8.2,1.1.1.3.3.5.6.6.2.1.5.2.8.2.5,0,.8-.1,1-.4.2-.2.4-.5.5-.9l1.5.3c-.1.4-.3.8-.5,1.2s-.6.6-1,.8c-.4.2-.9.3-1.5.3Z"/>
          <path d="M147.7,34.1v-8.4h1.5v3.2h.2c0-.1.2-.3.3-.4.1-.1.3-.2.5-.3.2,0,.5-.1.9-.1s.9.1,1.2.3c.3.2.6.5.8.9.2.4.3.8.3,1.3v3.6h-1.5v-3.4c0-.4-.1-.8-.3-1-.2-.2-.5-.3-.9-.3s-.8.2-1.1.5c-.3.3-.4.7-.4,1.3v3h-1.5Z"/>
          <path d="M157.8,34.3c-.6,0-1.1-.1-1.6-.4s-.8-.6-1.1-1.1-.4-1-.4-1.6h0c0-.8.1-1.3.4-1.8s.6-.8,1-1.1c.4-.3,1-.4,1.6-.4s1.1.1,1.5.4c.4.3.8.6,1,1.1.2.5.4,1,.4,1.6v.5h-4.3c0,.4.2.7.5,1s.6.4,1.1.4.7,0,.9-.3c.2-.2.4-.4.5-.6l1.2.6c-.1.2-.3.4-.5.7s-.5.5-.8.6c-.4.2-.8.3-1.3.3ZM156.4,30.5h2.8c0-.3-.2-.6-.4-.8-.2-.2-.6-.3-1-.3s-.7.1-1,.3c-.2.2-.4.5-.4.8Z"/>
          <path d="M164.5,34.3c-.8,0-1.4-.2-1.9-.5s-.8-.8-.9-1.4l1.4-.4c0,.3.2.5.3.7s.3.3.5.3c.2,0,.4.1.6.1.4,0,.6,0,.8-.2s.3-.3.3-.5,0-.3-.2-.4c-.2,0-.4-.2-.8-.2h-.3c-.4-.1-.8-.2-1.1-.4-.3-.1-.6-.3-.8-.6-.2-.2-.3-.6-.3-1,0-.6.2-1,.6-1.4.4-.3,1-.5,1.7-.5s1.2.1,1.7.4c.4.3.7.7.9,1.2l-1.4.4c0-.3-.2-.5-.4-.6s-.4-.2-.7-.2-.5,0-.7.2c-.2,0-.2.2-.2.4s0,.3.2.4.4.2.6.2h.3c.4.1.9.2,1.2.4.4.1.7.3.9.6.2.2.3.6.3,1,0,.6-.2,1.1-.7,1.4s-1.1.5-1.8.5Z"/>
        </g>
      </g>
      <line class="cls-3" x1="23" y1="22.6" x2="167" y2="22.6"/>
      <line class="cls-3" x1="23" y1="37.1" x2="167" y2="37.1"/>
      <rect class="cls-2" x="20" y="65" width="83.5" height="20"/>
      <g class="cls-1">
        <g class="cls-1">
          <path d="M26.2,79.3c-.6,0-1.1-.1-1.6-.4-.5-.3-.8-.6-1.1-1.1-.3-.5-.4-1.1-.4-1.8v-2c0-1.1.3-1.9.9-2.5.6-.6,1.4-.9,2.5-.9s1.8.3,2.4.8.8,1.3.8,2.2h0s-1.6,0-1.6,0h0c0-.4,0-.7-.2-.9s-.3-.4-.6-.6c-.2-.1-.6-.2-.9-.2-.6,0-1,.2-1.3.5-.3.3-.5.8-.5,1.4v2.1c0,.6.2,1.1.5,1.4.3.4.8.5,1.3.5s1-.2,1.3-.5c.3-.3.4-.7.4-1.2h0c0-.1-2-.1-2-.1v-1.3h3.6v4.3h-1.5v-.8h-.2c0,.1-.1.3-.3.4-.1.2-.3.3-.6.4-.2.1-.6.2-1,.2Z"/>
          <path d="M31.3,79.1v-8.4h1.5v8.4h-1.5Z"/>
          <path d="M36.7,79.2c-.5,0-.9-.1-1.2-.3-.3-.2-.6-.5-.8-.9s-.3-.8-.3-1.3v-3.6h1.5v3.4c0,.4.1.8.3,1,.2.2.5.3.9.3s.8-.2,1.1-.5c.3-.3.4-.7.4-1.3v-3h1.5v6h-1.5v-.8h-.2c0,.2-.3.4-.5.6-.3.2-.7.3-1.2.3Z"/>
          <path d="M44.6,79.3c-.6,0-1.1-.1-1.6-.4-.5-.3-.8-.6-1.1-1.1s-.4-1-.4-1.6h0c0-.8.1-1.3.4-1.8s.6-.8,1-1.1c.4-.3,1-.4,1.6-.4s1.1.1,1.5.4c.4.3.8.6,1,1.1.2.5.4,1,.4,1.6v.5h-4.3c0,.4.2.7.5,1s.6.4,1.1.4.7,0,.9-.3c.2-.2.4-.4.5-.6l1.2.6c-.1.2-.3.4-.5.7-.2.2-.5.5-.8.6s-.8.3-1.3.3ZM43.1,75.5h2.8c0-.3-.2-.6-.4-.8-.2-.2-.6-.3-1-.3s-.7.1-1,.3c-.2.2-.4.5-.4.8Z"/>
          <path d="M54.7,79.3c-.6,0-1.2-.1-1.7-.3-.5-.2-.9-.6-1.2-1-.3-.4-.4-1-.4-1.6v-.3h1.6v.3c0,.5.2.9.5,1.1s.7.4,1.3.4.9-.1,1.2-.3.4-.5.4-.8,0-.4-.2-.6c-.1-.1-.3-.3-.6-.4-.3,0-.6-.2-.9-.3h-.3c-.6-.2-1.1-.4-1.5-.5-.4-.2-.7-.5-.9-.8-.2-.3-.3-.7-.3-1.2s.1-1,.4-1.3c.2-.4.6-.6,1-.8.4-.2,1-.3,1.6-.3s1.1.1,1.6.3.8.5,1.1.9c.3.4.4.9.4,1.5v.4h-1.6v-.4c0-.3,0-.6-.2-.8-.1-.2-.3-.3-.5-.4-.2,0-.5-.1-.8-.1-.5,0-.8,0-1.1.3-.2.2-.3.4-.3.7s0,.4.2.5c.1.1.3.3.5.4.2,0,.5.2.8.3h.3c.6.2,1.1.4,1.6.6.4.2.8.5,1,.8.2.3.4.7.4,1.3s-.1,1-.4,1.3c-.3.4-.6.7-1.1.9s-1,.3-1.7.3Z"/>
          <path d="M61.4,79.2c-.5,0-.9-.1-1.2-.3-.3-.2-.6-.5-.8-.9s-.3-.8-.3-1.3v-3.6h1.5v3.4c0,.4.1.8.3,1,.2.2.5.3.9.3s.8-.2,1.1-.5c.3-.3.4-.7.4-1.3v-3h1.5v6h-1.5v-.8h-.2c0,.2-.3.4-.5.6-.3.2-.7.3-1.2.3Z"/>
          <path d="M66.5,81.5v-8.4h1.5v.7h.2c.1-.2.3-.4.6-.6.3-.2.7-.3,1.2-.3s.9.1,1.3.4c.4.2.7.6,1,1,.2.5.4,1,.4,1.7v.2c0,.6-.1,1.2-.4,1.7s-.6.8-1,1c-.4.2-.9.4-1.3.4s-.7,0-.9-.1c-.2,0-.4-.2-.6-.3s-.3-.3-.4-.4h-.2v3.1h-1.5ZM69.6,78c.5,0,.9-.1,1.2-.4.3-.3.5-.7.5-1.3h0c0-.7-.2-1.1-.5-1.4-.3-.3-.7-.5-1.2-.5s-.9.1-1.2.5c-.3.3-.5.7-.5,1.3h0c0,.7.2,1.1.5,1.4.3.3.7.4,1.2.4Z"/>
          <path d="M74.2,81.5v-8.4h1.5v.7h.2c.1-.2.3-.4.6-.6.3-.2.7-.3,1.2-.3s.9.1,1.3.4c.4.2.7.6,1,1,.2.5.4,1,.4,1.7v.2c0,.6-.1,1.2-.4,1.7s-.6.8-1,1c-.4.2-.9.4-1.3.4s-.7,0-.9-.1c-.2,0-.4-.2-.6-.3s-.3-.3-.4-.4h-.2v3.1h-1.5ZM77.3,78c.5,0,.9-.1,1.2-.4.3-.3.5-.7.5-1.3h0c0-.7-.2-1.1-.5-1.4-.3-.3-.7-.5-1.2-.5s-.9.1-1.2.5c-.3.3-.5.7-.5,1.3h0c0,.7.2,1.1.5,1.4.3.3.7.4,1.2.4Z"/>
          <path d="M81.8,79.1v-8.4h1.5v8.4h-1.5Z"/>
          <path d="M85.8,72.5c-.3,0-.5,0-.7-.3s-.3-.4-.3-.7,0-.5.3-.7.4-.3.7-.3.5,0,.7.3.3.4.3.7,0,.5-.3.7-.4.3-.7.3ZM85,79.1v-6h1.5v6h-1.5Z"/>
          <path d="M90.9,79.3c-.6,0-1.1-.1-1.6-.4-.5-.3-.8-.6-1.1-1.1s-.4-1-.4-1.6h0c0-.8.1-1.3.4-1.8s.6-.8,1-1.1c.4-.3,1-.4,1.6-.4s1.1.1,1.5.4c.4.3.8.6,1,1.1.2.5.4,1,.4,1.6v.5h-4.3c0,.4.2.7.5,1s.6.4,1.1.4.7,0,.9-.3c.2-.2.4-.4.5-.6l1.2.6c-.1.2-.3.4-.5.7-.2.2-.5.5-.8.6s-.8.3-1.3.3ZM89.5,75.5h2.8c0-.3-.2-.6-.4-.8-.2-.2-.6-.3-1-.3s-.7.1-1,.3c-.2.2-.4.5-.4.8Z"/>
          <path d="M97.6,79.3c-.8,0-1.4-.2-1.9-.5s-.8-.8-.9-1.4l1.4-.4c0,.3.1.5.3.7.1.2.3.3.5.3.2,0,.4.1.6.1.4,0,.6,0,.8-.2s.3-.3.3-.5,0-.3-.2-.4c-.2,0-.4-.2-.8-.2h-.3c-.4-.1-.8-.2-1.1-.4-.3-.1-.6-.3-.8-.6-.2-.2-.3-.6-.3-1,0-.6.2-1,.6-1.4.4-.3,1-.5,1.7-.5s1.2.1,1.7.4.7.7.9,1.2l-1.4.4c0-.3-.2-.5-.4-.6-.2-.1-.4-.2-.7-.2s-.5,0-.7.2c-.2,0-.2.2-.2.4s0,.3.2.4.4.2.6.2h.3c.4.1.9.2,1.2.4.4.1.7.3.9.6.2.2.3.6.3,1,0,.6-.2,1.1-.7,1.4s-1.1.5-1.8.5Z"/>
        </g>
      </g>
      <line class="cls-3" x1="23" y1="67.6" x2="100.5" y2="67.6"/>
      <line class="cls-3" x1="23" y1="82.1" x2="100.5" y2="82.1"/>
      <rect class="cls-2" x="20" y="110" width="47.5" height="20"/>
      <g class="cls-1">
        <g class="cls-1">
          <path d="M26.5,124.3c-1,0-1.9-.3-2.5-.9-.6-.6-.9-1.4-.9-2.5v-2c0-1.1.3-1.9.9-2.5.6-.6,1.4-.9,2.5-.9s1.8.3,2.4.8c.6.6.8,1.3.8,2.3h0c0,0-1.6,0-1.6,0h0c0-.6-.1-1-.4-1.3s-.7-.5-1.3-.5-1,.2-1.3.5c-.3.3-.5.8-.5,1.4v2.1c0,.6.2,1,.5,1.4.3.3.8.5,1.3.5s1-.2,1.3-.5c.3-.3.4-.7.4-1.2v-.2h1.6v.2c0,1-.3,1.8-.8,2.3-.6.6-1.4.8-2.4.8Z"/>
          <path d="M31.1,124.1v-8.4h1.5v8.4h-1.5Z"/>
          <path d="M36.1,124.3c-.4,0-.8,0-1.1-.2-.3-.1-.6-.4-.8-.6-.2-.3-.3-.6-.3-1s0-.8.3-1c.2-.3.5-.5.8-.6.3-.1.7-.2,1.2-.2h1.6v-.3c0-.3,0-.5-.3-.7s-.5-.3-.8-.3-.7,0-.8.3c-.2.2-.3.4-.4.7l-1.4-.5c0-.3.2-.6.5-.8.2-.3.5-.5.9-.6.4-.2.8-.2,1.3-.2.8,0,1.4.2,1.9.6.5.4.7,1,.7,1.7v2.2c0,.2.1.4.3.4h.5v1.2h-1c-.3,0-.5,0-.7-.2-.2-.1-.3-.3-.3-.6h0s-.2,0-.2,0c0,0-.1.2-.2.4-.1.2-.3.3-.5.4-.2.1-.6.2-1,.2ZM36.4,123.1c.4,0,.8-.1,1-.4.3-.2.4-.5.4-.9h0c0-.1-1.5-.1-1.5-.1-.3,0-.5,0-.7.2s-.2.3-.2.5,0,.4.3.5c.2.1.4.2.7.2Z"/>
          <path d="M41.2,124.1v-6h1.5v.6h.2c.1-.2.3-.4.5-.5.2-.1.6-.2.9-.2s.8,0,1,.2c.3.2.5.4.6.6h.2c.1-.3.3-.5.6-.6.2-.2.6-.3,1.1-.3s.7,0,1,.2c.3.2.5.4.7.7.2.3.3.7.3,1.2v3.9h-1.5v-3.8c0-.3,0-.6-.3-.7s-.4-.2-.7-.2-.6.1-.8.3-.3.5-.3.9v3.5h-1.5v-3.8c0-.3,0-.6-.3-.7s-.4-.2-.7-.2-.6.1-.8.3-.3.5-.3.9v3.5h-1.5Z"/>
          <path d="M51.4,126.5v-8.4h1.5v.7h.2c.1-.2.3-.4.6-.6.3-.2.7-.3,1.2-.3s.9.1,1.3.4c.4.2.7.6,1,1,.2.5.4,1,.4,1.7v.2c0,.6-.1,1.2-.4,1.7s-.6.8-1,1c-.4.2-.9.4-1.3.4s-.7,0-.9-.1c-.2,0-.4-.2-.6-.3s-.3-.3-.4-.4h-.2v3.1h-1.5ZM54.6,123c.5,0,.9-.1,1.2-.4.3-.3.5-.7.5-1.3h0c0-.7-.2-1.1-.5-1.4-.3-.3-.7-.5-1.2-.5s-.9.1-1.2.5c-.3.3-.5.7-.5,1.3h0c0,.7.2,1.1.5,1.4.3.3.7.4,1.2.4Z"/>
          <path d="M61.6,124.3c-.8,0-1.4-.2-1.9-.5s-.8-.8-.9-1.4l1.4-.4c0,.3.1.5.3.7.1.2.3.3.5.3.2,0,.4.1.6.1.4,0,.6,0,.8-.2s.3-.3.3-.5,0-.3-.2-.4c-.2,0-.4-.2-.8-.2h-.3c-.4-.1-.8-.2-1.1-.4-.3-.1-.6-.3-.8-.6-.2-.2-.3-.6-.3-1,0-.6.2-1,.6-1.4.4-.3,1-.5,1.7-.5s1.2.1,1.7.4.7.7.9,1.2l-1.4.4c0-.3-.2-.5-.4-.6-.2-.1-.4-.2-.7-.2s-.5,0-.7.2c-.2,0-.2.2-.2.4s0,.3.2.4.4.2.6.2h.3c.4.1.9.2,1.2.4.4.1.7.3.9.6.2.2.3.6.3,1,0,.6-.2,1.1-.7,1.4s-1.1.5-1.8.5Z"/>
        </g>
      </g>
      <line class="cls-3" x1="23" y1="112.6" x2="64.5" y2="112.6"/>
      <line class="cls-3" x1="23" y1="127.1" x2="64.5" y2="127.1"/>
      <rect class="cls-2" x="20" y="155" width="122.5" height="20"/>
      <g class="cls-1">
        <g class="cls-1">
          <path d="M23.3,169.1v-8.4h1.6v3.5h3.1v-3.5h1.6v8.4h-1.6v-3.5h-3.1v3.5h-1.6Z"/>
          <path d="M33.1,169.3c-.4,0-.8,0-1.1-.2-.3-.1-.6-.4-.8-.6-.2-.3-.3-.6-.3-1s0-.8.3-1c.2-.3.5-.5.8-.6.3-.1.7-.2,1.2-.2h1.6v-.3c0-.3,0-.5-.3-.7s-.5-.3-.8-.3-.7,0-.8.3c-.2.2-.3.4-.4.7l-1.4-.5c0-.3.2-.6.5-.8.2-.3.5-.5.9-.6.4-.2.8-.2,1.3-.2.8,0,1.4.2,1.9.6.5.4.7,1,.7,1.7v2.2c0,.2.1.4.3.4h.5v1.2h-1c-.3,0-.5,0-.7-.2-.2-.1-.3-.3-.3-.6h0s-.2,0-.2,0c0,0-.1.2-.2.4-.1.2-.3.3-.5.4-.2.1-.6.2-1,.2ZM33.3,168.1c.4,0,.8-.1,1-.4.3-.2.4-.5.4-.9h0c0-.1-1.5-.1-1.5-.1-.3,0-.5,0-.7.2s-.2.3-.2.5,0,.4.3.5c.2.1.4.2.7.2Z"/>
          <path d="M38.1,169.1v-6h1.5v.6h.2c.1-.2.3-.4.5-.5.2-.1.6-.2.9-.2s.8,0,1,.2c.3.2.5.4.6.6h.2c.1-.3.3-.5.6-.6.2-.2.6-.3,1.1-.3s.7,0,1,.2c.3.2.5.4.7.7.2.3.3.7.3,1.2v3.9h-1.5v-3.8c0-.3,0-.6-.3-.7s-.4-.2-.7-.2-.6.1-.8.3-.3.5-.3.9v3.5h-1.5v-3.8c0-.3,0-.6-.3-.7s-.4-.2-.7-.2-.6.1-.8.3-.3.5-.3.9v3.5h-1.5Z"/>
          <path d="M48.4,169.1v-6h1.5v.6h.2c.1-.2.3-.4.5-.5.2-.1.6-.2.9-.2s.8,0,1,.2c.3.2.5.4.6.6h.2c.1-.3.3-.5.6-.6.2-.2.6-.3,1.1-.3s.7,0,1,.2c.3.2.5.4.7.7.2.3.3.7.3,1.2v3.9h-1.5v-3.8c0-.3,0-.6-.3-.7s-.4-.2-.7-.2-.6.1-.8.3-.3.5-.3.9v3.5h-1.5v-3.8c0-.3,0-.6-.3-.7s-.4-.2-.7-.2-.6.1-.8.3-.3.5-.3.9v3.5h-1.5Z"/>
          <path d="M61.4,169.3c-.6,0-1.1-.1-1.6-.4-.5-.3-.8-.6-1.1-1.1s-.4-1-.4-1.6h0c0-.8.1-1.3.4-1.8s.6-.8,1-1.1c.4-.3,1-.4,1.6-.4s1.1.1,1.5.4c.4.3.8.6,1,1.1.2.5.4,1,.4,1.6v.5h-4.3c0,.4.2.7.5,1s.6.4,1.1.4.7,0,.9-.3c.2-.2.4-.4.5-.6l1.2.6c-.1.2-.3.4-.5.7-.2.2-.5.5-.8.6s-.8.3-1.3.3ZM59.9,165.5h2.8c0-.3-.2-.6-.4-.8-.2-.2-.6-.3-1-.3s-.7.1-1,.3c-.2.2-.4.5-.4.8Z"/>
        </g>
        <g class="cls-1">
          <path d="M65.7,169.1v-6h1.5v.7h.2c0-.2.2-.4.4-.5.2-.1.4-.2.7-.2h.7v1.3h-.7c-.4,0-.7.1-.9.3-.2.2-.4.5-.4.9v3.4h-1.5Z"/>
        </g>
        <g class="cls-1">
          <path d="M69.6,170.9v-.8h.5c.4,0,.6-.2.6-.6v-.4h-.2c-.3,0-.6,0-.8-.3-.2-.2-.3-.4-.3-.7s.1-.6.3-.8.5-.3.8-.3.6.1.8.3.3.5.3.8v1.4c0,.9-.4,1.3-1.3,1.3h-.6Z"/>
        </g>
        <g class="cls-1">
          <path d="M75.4,169.1v-8.4h2.9l1.5,7.3h.2l1.5-7.3h2.9v8.4h-1.5v-7.2h-.2l-1.4,7.2h-2.6l-1.4-7.2h-.2v7.2h-1.5Z"/>
          <path d="M87.9,169.3c-.4,0-.8,0-1.1-.2-.3-.1-.6-.4-.8-.6-.2-.3-.3-.6-.3-1s0-.8.3-1c.2-.3.5-.5.8-.6.3-.1.7-.2,1.2-.2h1.6v-.3c0-.3,0-.5-.3-.7s-.5-.3-.8-.3-.7,0-.8.3c-.2.2-.3.4-.4.7l-1.4-.5c0-.3.2-.6.5-.8.2-.3.5-.5.9-.6.4-.2.8-.2,1.3-.2.8,0,1.4.2,1.9.6.5.4.7,1,.7,1.7v2.2c0,.2.1.4.3.4h.5v1.2h-1c-.3,0-.5,0-.7-.2-.2-.1-.3-.3-.3-.6h0s-.2,0-.2,0c0,0-.1.2-.2.4-.1.2-.3.3-.5.4-.2.1-.6.2-1,.2ZM88.1,168.1c.4,0,.8-.1,1-.4.3-.2.4-.5.4-.9h0c0-.1-1.5-.1-1.5-.1-.3,0-.5,0-.7.2s-.2.3-.2.5,0,.4.3.5c.2.1.4.2.7.2Z"/>
          <path d="M93,169.1v-8.4h1.5v8.4h-1.5Z"/>
          <path d="M96.2,169.1v-8.4h1.5v8.4h-1.5Z"/>
        </g>
        <g class="cls-1">
          <path d="M101.7,169.3c-.6,0-1.1-.1-1.6-.4-.5-.3-.8-.6-1.1-1.1s-.4-1-.4-1.6h0c0-.8.1-1.3.4-1.8s.6-.8,1-1.1c.4-.3,1-.4,1.6-.4s1.1.1,1.5.4c.4.3.8.6,1,1.1.2.5.4,1,.4,1.6v.5h-4.3c0,.4.2.7.5,1s.6.4,1.1.4.7,0,.9-.3c.2-.2.4-.4.5-.6l1.2.6c-.1.2-.3.4-.5.7-.2.2-.5.5-.8.6s-.8.3-1.3.3ZM100.3,165.5h2.8c0-.3-.2-.6-.4-.8-.2-.2-.6-.3-1-.3s-.7.1-1,.3c-.2.2-.4.5-.4.8Z"/>
        </g>
        <g class="cls-1">
          <path d="M108.1,169.1c-.4,0-.7-.1-1-.4s-.4-.6-.4-1v-3.4h-1.5v-1.2h1.5v-1.8h1.5v1.8h1.6v1.2h-1.6v3.1c0,.2.1.4.3.4h1.2v1.2h-1.7Z"/>
        </g>
        <g class="cls-1">
          <path d="M111.4,170.9v-.8h.5c.4,0,.6-.2.6-.6v-.4h-.2c-.3,0-.6,0-.8-.3-.2-.2-.3-.4-.3-.7s.1-.6.3-.8.5-.3.8-.3.6.1.8.3.3.5.3.8v1.4c0,.9-.4,1.3-1.3,1.3h-.6Z"/>
        </g>
        <g class="cls-1">
          <path d="M120.1,169.3c-.6,0-1.2-.1-1.7-.3-.5-.2-.9-.6-1.2-1-.3-.4-.4-1-.4-1.6v-.3h1.6v.3c0,.5.2.9.5,1.1s.7.4,1.3.4.9-.1,1.2-.3.4-.5.4-.8,0-.4-.2-.6c-.1-.1-.3-.3-.6-.4-.3,0-.6-.2-.9-.3h-.3c-.6-.2-1.1-.4-1.5-.5-.4-.2-.7-.5-.9-.8-.2-.3-.3-.7-.3-1.2s.1-1,.4-1.3c.2-.4.6-.6,1-.8.4-.2,1-.3,1.6-.3s1.1.1,1.6.3.8.5,1.1.9c.3.4.4.9.4,1.5v.4h-1.6v-.4c0-.3,0-.6-.2-.8-.1-.2-.3-.3-.5-.4-.2,0-.5-.1-.8-.1-.5,0-.8,0-1.1.3-.2.2-.3.4-.3.7s0,.4.2.5c.1.1.3.3.5.4.2,0,.5.2.8.3h.3c.6.2,1.1.4,1.6.6.4.2.8.5,1,.8.2.3.4.7.4,1.3s-.1,1-.4,1.3c-.3.4-.6.7-1.1.9s-1,.3-1.7.3Z"/>
        </g>
        <g class="cls-1">
          <path d="M126.4,169.3c-.4,0-.8,0-1.1-.2-.3-.1-.6-.4-.8-.6-.2-.3-.3-.6-.3-1s0-.8.3-1c.2-.3.5-.5.8-.6.3-.1.7-.2,1.2-.2h1.6v-.3c0-.3,0-.5-.3-.7s-.5-.3-.8-.3-.7,0-.8.3c-.2.2-.3.4-.4.7l-1.4-.5c0-.3.2-.6.5-.8.2-.3.5-.5.9-.6.4-.2.8-.2,1.3-.2.8,0,1.4.2,1.9.6.5.4.7,1,.7,1.7v2.2c0,.2.1.4.3.4h.5v1.2h-1c-.3,0-.5,0-.7-.2-.2-.1-.3-.3-.3-.6h0s-.2,0-.2,0c0,0-.1.2-.2.4-.1.2-.3.3-.5.4-.2.1-.6.2-1,.2ZM126.7,168.1c.4,0,.8-.1,1-.4.3-.2.4-.5.4-.9h0c0-.1-1.5-.1-1.5-.1-.3,0-.5,0-.7.2s-.2.3-.2.5,0,.4.3.5c.2.1.4.2.7.2Z"/>
        </g>
        <g class="cls-1">
          <path d="M131.9,169.1l-.8-6h1.5l.5,4.9h.2l.8-4.9h2.4l.8,4.9h.2l.5-4.9h1.5l-.8,6h-2.5l-.8-4.9h-.2l-.8,4.9h-2.5Z"/>
        </g>
      </g>
      <line class="cls-3" x1="23" y1="157.6" x2="139.5" y2="157.6"/>
      <line class="cls-3" x1="23" y1="172.1" x2="139.5" y2="172.1"/>
      <rect class="cls-2" x="20" y="215" width="93.5" height="20"/>
      <g class="cls-1">
        <g class="cls-1">
          <path d="M26.2,229.3c-.6,0-1.2-.1-1.7-.3-.5-.2-.9-.6-1.2-1-.3-.4-.4-1-.4-1.6v-.3h1.6v.3c0,.5.2.9.5,1.1s.7.4,1.3.4.9-.1,1.2-.3.4-.5.4-.8,0-.4-.2-.6c-.1-.1-.3-.3-.6-.4-.3,0-.6-.2-.9-.3h-.3c-.6-.2-1.1-.4-1.5-.5-.4-.2-.7-.5-.9-.8-.2-.3-.3-.7-.3-1.2s.1-1,.4-1.3c.2-.4.6-.6,1-.8.4-.2,1-.3,1.6-.3s1.1.1,1.6.3.8.5,1.1.9c.3.4.4.9.4,1.5v.4h-1.6v-.4c0-.3,0-.6-.2-.8-.1-.2-.3-.3-.5-.4-.2,0-.5-.1-.8-.1-.5,0-.8,0-1.1.3-.2.2-.3.4-.3.7s0,.4.2.5c.1.1.3.3.5.4.2,0,.5.2.8.3h.3c.6.2,1.1.4,1.6.6.4.2.8.5,1,.8.2.3.4.7.4,1.3s-.1,1-.4,1.3c-.3.4-.6.7-1.1.9s-1,.3-1.7.3Z"/>
          <path d="M33.4,229.3c-.6,0-1.1-.1-1.6-.4-.5-.2-.8-.6-1.1-1s-.4-1-.4-1.6v-.2c0-.6.1-1.2.4-1.6s.6-.8,1.1-1c.5-.2,1-.4,1.6-.4s1.1.1,1.6.4c.5.2.8.6,1.1,1s.4,1,.4,1.6v.2c0,.6-.1,1.2-.4,1.6s-.6.8-1.1,1c-.5.2-1,.4-1.6.4ZM33.4,227.9c.5,0,.8-.2,1.2-.5.3-.3.5-.7.5-1.3h0c0-.7-.1-1.1-.4-1.4-.3-.3-.7-.5-1.2-.5s-.8.2-1.2.5c-.3.3-.5.7-.5,1.3h0c0,.7.2,1.1.5,1.4.3.3.7.5,1.2.5Z"/>
          <path d="M38,229.1v-8.4h1.5v8.4h-1.5Z"/>
          <path d="M43.5,229.3c-.5,0-.9-.1-1.3-.4-.4-.2-.7-.6-1-1s-.4-1-.4-1.7v-.2c0-.6.1-1.2.4-1.7.2-.5.6-.8,1-1,.4-.2.9-.4,1.3-.4s.7,0,.9.1.4.2.6.3c.2.1.3.3.3.4h.2v-3.1h1.5v8.4h-1.5v-.7h-.2c-.1.2-.3.4-.6.6-.3.2-.7.3-1.2.3ZM44,228c.5,0,.9-.1,1.2-.4.3-.3.5-.7.5-1.3h0c0-.7-.2-1.1-.5-1.4-.3-.3-.7-.5-1.2-.5s-.9.1-1.2.5c-.3.3-.5.7-.5,1.3h0c0,.7.2,1.1.5,1.4.3.3.7.4,1.2.4Z"/>
          <path d="M51.5,229.3c-.6,0-1.1-.1-1.6-.4-.5-.3-.8-.6-1.1-1.1s-.4-1-.4-1.6h0c0-.8.1-1.3.4-1.8s.6-.8,1-1.1c.4-.3,1-.4,1.6-.4s1.1.1,1.5.4c.4.3.8.6,1,1.1.2.5.4,1,.4,1.6v.5h-4.3c0,.4.2.7.5,1s.6.4,1.1.4.7,0,.9-.3c.2-.2.4-.4.5-.6l1.2.6c-.1.2-.3.4-.5.7-.2.2-.5.5-.8.6s-.8.3-1.3.3ZM50.1,225.5h2.8c0-.3-.2-.6-.4-.8-.2-.2-.6-.3-1-.3s-.7.1-1,.3c-.2.2-.4.5-.4.8Z"/>
          <path d="M55.7,229.1v-6h1.5v.7h.2c0-.2.2-.4.4-.5.2-.1.4-.2.7-.2h.7v1.3h-.7c-.4,0-.7.1-.9.3-.2.2-.4.5-.4.9v3.4h-1.5Z"/>
          <path d="M61.2,222.5c-.3,0-.5,0-.7-.3s-.3-.4-.3-.7,0-.5.3-.7.4-.3.7-.3.5,0,.7.3.3.4.3.7,0,.5-.3.7-.4.3-.7.3ZM60.5,229.1v-6h1.5v6h-1.5Z"/>
          <path d="M63.7,229.1v-6h1.5v.8h.2c0-.2.3-.4.5-.6.3-.2.7-.3,1.2-.3s.9.1,1.2.3c.3.2.6.5.8.9.2.4.3.8.3,1.3v3.6h-1.5v-3.4c0-.4-.1-.8-.3-1-.2-.2-.5-.3-.9-.3s-.8.2-1.1.5c-.3.3-.4.7-.4,1.3v3h-1.5Z"/>
          <path d="M70.8,226.2v-.2c0-.6.1-1.2.4-1.6s.6-.8,1-1c.4-.2.9-.4,1.4-.4s1,0,1.2.3c.3.2.5.4.6.6h.2v-.7h1.5v7c0,.4-.1.7-.4,1-.2.2-.6.4-1,.4h-4v-1.3h3.5c.2,0,.3-.1.3-.4v-1.5h-.2c0,.1-.2.3-.3.4-.1.1-.3.2-.6.3-.2,0-.5.1-.9.1s-.9-.1-1.4-.4c-.4-.2-.7-.6-1-1-.2-.4-.4-1-.4-1.6ZM73.9,227.8c.5,0,.9-.1,1.2-.4s.5-.7.5-1.2h0c0-.7-.2-1.1-.5-1.4-.3-.3-.7-.4-1.2-.4s-.9.1-1.2.4-.5.7-.5,1.3h0c0,.7.2,1.1.5,1.4s.7.4,1.2.4Z"/>
        </g>
        <g class="cls-1">
          <path d="M83.2,229.1v-7h-2.4v-1.4h6.5v1.4h-2.4v7h-1.6Z"/>
        </g>
        <g class="cls-1">
          <path d="M90,229.3c-.6,0-1.1-.1-1.6-.4-.5-.2-.8-.6-1.1-1s-.4-1-.4-1.6v-.2c0-.6.1-1.2.4-1.6s.6-.8,1.1-1c.5-.2,1-.4,1.6-.4s1.1.1,1.6.4c.5.2.8.6,1.1,1s.4,1,.4,1.6v.2c0,.6-.1,1.2-.4,1.6s-.6.8-1.1,1c-.5.2-1,.4-1.6.4ZM90,227.9c.5,0,.8-.2,1.2-.5.3-.3.5-.7.5-1.3h0c0-.7-.1-1.1-.4-1.4-.3-.3-.7-.5-1.2-.5s-.8.2-1.2.5c-.3.3-.5.7-.5,1.3h0c0,.7.2,1.1.5,1.4.3.3.7.5,1.2.5Z"/>
          <path d="M97.4,229.3c-.6,0-1.1-.1-1.6-.4-.5-.2-.8-.6-1.1-1s-.4-1-.4-1.6v-.2c0-.6.1-1.2.4-1.6s.6-.8,1.1-1c.5-.2,1-.4,1.6-.4s1.1.1,1.6.4c.5.2.8.6,1.1,1s.4,1,.4,1.6v.2c0,.6-.1,1.2-.4,1.6s-.6.8-1.1,1c-.5.2-1,.4-1.6.4ZM97.4,227.9c.5,0,.8-.2,1.2-.5.3-.3.5-.7.5-1.3h0c0-.7-.1-1.1-.4-1.4-.3-.3-.7-.5-1.2-.5s-.8.2-1.2.5c-.3.3-.5.7-.5,1.3h0c0,.7.2,1.1.5,1.4.3.3.7.5,1.2.5Z"/>
          <path d="M101.9,229.1v-8.4h1.5v8.4h-1.5Z"/>
          <path d="M107.5,229.3c-.8,0-1.4-.2-1.9-.5s-.8-.8-.9-1.4l1.4-.4c0,.3.1.5.3.7.1.2.3.3.5.3.2,0,.4.1.6.1.4,0,.6,0,.8-.2s.3-.3.3-.5,0-.3-.2-.4c-.2,0-.4-.2-.8-.2h-.3c-.4-.1-.8-.2-1.1-.4-.3-.1-.6-.3-.8-.6-.2-.2-.3-.6-.3-1,0-.6.2-1,.6-1.4.4-.3,1-.5,1.7-.5s1.2.1,1.7.4.7.7.9,1.2l-1.4.4c0-.3-.2-.5-.4-.6-.2-.1-.4-.2-.7-.2s-.5,0-.7.2c-.2,0-.2.2-.2.4s0,.3.2.4.4.2.6.2h.3c.4.1.9.2,1.2.4.4.1.7.3.9.6.2.2.3.6.3,1,0,.6-.2,1.1-.7,1.4s-1.1.5-1.8.5Z"/>
        </g>
      </g>
      <line class="cls-3" x1="23" y1="217.6" x2="110.5" y2="217.6"/>
      <line class="cls-3" x1="23" y1="232.1" x2="110.5" y2="232.1"/>
      <rect class="cls-2" x="274.5" y="20" width="155.5" height="20"/>
      <g class="cls-1">
        <g class="cls-1">
          <path d="M277.9,34.1v-8.4h3.5c.5,0,1,.1,1.4.3s.7.5.9.9c.2.4.3.8.3,1.4v.2c0,.5-.1,1-.4,1.4-.2.4-.6.7-1,.9-.4.2-.9.3-1.4.3h-1.9v3.1h-1.6ZM279.5,29.6h1.7c.4,0,.7-.1.9-.3.2-.2.3-.5.3-.9h0c0-.5-.1-.8-.3-1-.2-.2-.5-.3-.9-.3h-1.7v2.4Z"/>
          <path d="M285.2,34.1v-8.4h1.5v8.4h-1.5Z"/>
          <path d="M289.2,27.5c-.3,0-.5,0-.7-.3-.2-.2-.3-.4-.3-.7s0-.5.3-.7c.2-.2.4-.3.7-.3s.5,0,.7.3c.2.2.3.4.3.7s0,.5-.3.7c-.2.2-.4.3-.7.3ZM288.4,34.1v-6h1.5v6h-1.5Z"/>
          <path d="M294.3,34.3c-.6,0-1.1-.1-1.6-.4-.5-.3-.8-.6-1.1-1.1s-.4-1-.4-1.6h0c0-.8.1-1.3.4-1.8s.6-.8,1-1.1,1-.4,1.6-.4,1.1.1,1.5.4c.4.3.8.6,1,1.1.2.5.4,1,.4,1.6v.5h-4.3c0,.4.2.7.5,1s.6.4,1.1.4.7,0,.9-.3c.2-.2.4-.4.5-.6l1.2.6c-.1.2-.3.4-.5.7-.2.2-.5.5-.8.6-.4.2-.8.3-1.3.3ZM292.9,30.5h2.8c0-.3-.2-.6-.4-.8s-.6-.3-1-.3-.7.1-1,.3-.4.5-.4.8Z"/>
        </g>
        <g class="cls-1">
          <path d="M298.3,34.1v-6h1.5v.7h.2c0-.2.2-.4.4-.5.2-.1.4-.2.7-.2h.7v1.3h-.7c-.4,0-.7.1-.9.3-.2.2-.4.5-.4.9v3.4h-1.5Z"/>
        </g>
        <g class="cls-1">
          <path d="M305.3,34.3c-.8,0-1.4-.2-1.9-.5s-.8-.8-.9-1.4l1.4-.4c0,.3.2.5.3.7s.3.3.5.3c.2,0,.4.1.6.1.4,0,.6,0,.8-.2s.3-.3.3-.5,0-.3-.2-.4c-.2,0-.4-.2-.8-.2h-.3c-.4-.1-.8-.2-1.1-.4-.3-.1-.6-.3-.8-.6-.2-.2-.3-.6-.3-1,0-.6.2-1,.6-1.4.4-.3,1-.5,1.7-.5s1.2.1,1.7.4.7.7.9,1.2l-1.4.4c0-.3-.2-.5-.4-.6-.2-.1-.4-.2-.7-.2s-.5,0-.7.2c-.2,0-.2.2-.2.4s0,.3.2.4.4.2.6.2h.3c.4.1.9.2,1.2.4.4.1.7.3.9.6.2.2.3.6.3,1,0,.6-.2,1.1-.7,1.4-.5.3-1.1.5-1.8.5Z"/>
        </g>
        <g class="cls-1">
          <path d="M309.3,35.9v-.8h.5c.4,0,.6-.2.6-.6v-.4h-.2c-.3,0-.6,0-.8-.3-.2-.2-.3-.4-.3-.7s.1-.6.3-.8.5-.3.8-.3.6.1.8.3.3.5.3.8v1.4c0,.9-.4,1.3-1.3,1.3h-.6Z"/>
        </g>
        <g class="cls-1">
          <path d="M318.3,34.3c-1,0-1.9-.3-2.5-.9-.6-.6-.9-1.4-.9-2.5v-2c0-1.1.3-1.9.9-2.5.6-.6,1.4-.9,2.5-.9s1.8.3,2.4.8c.6.6.8,1.3.8,2.3h0c0,0-1.6,0-1.6,0h0c0-.6-.1-1-.4-1.3-.3-.3-.7-.5-1.3-.5s-1,.2-1.3.5-.5.8-.5,1.4v2.1c0,.6.2,1,.5,1.4.3.3.8.5,1.3.5s1-.2,1.3-.5c.3-.3.4-.7.4-1.2v-.2h1.6v.2c0,1-.3,1.8-.8,2.3s-1.4.8-2.4.8Z"/>
          <path d="M325.1,34.2c-.5,0-.9-.1-1.2-.3s-.6-.5-.8-.9c-.2-.4-.3-.8-.3-1.3v-3.6h1.5v3.4c0,.4.1.8.3,1,.2.2.5.3.9.3s.8-.2,1.1-.5c.3-.3.4-.7.4-1.3v-3h1.5v6h-1.5v-.8h-.2c0,.2-.3.4-.5.6-.3.2-.7.3-1.2.3Z"/>
          <path d="M332.5,34.1c-.4,0-.7-.1-1-.4s-.4-.6-.4-1v-3.4h-1.5v-1.2h1.5v-1.8h1.5v1.8h1.3v1.2h-1.3v3.1c0,.2.1.4.3.4h1.2v1.2h-1.7ZM336.4,34.1c-.4,0-.7-.1-1-.4s-.4-.6-.4-1v-3.4h-1.1v-1.2h1.1v-1.8h1.5v1.8h1.6v1.2h-1.6v3.1c0,.2.1.4.3.4h1.2v1.2h-1.7Z"/>
          <path d="M342.3,34.3c-.6,0-1.1-.1-1.6-.4s-.8-.6-1.1-1.1-.4-1-.4-1.6h0c0-.8.1-1.3.4-1.8s.6-.8,1-1.1c.4-.3,1-.4,1.6-.4s1.1.1,1.5.4c.4.3.8.6,1,1.1.2.5.4,1,.4,1.6v.5h-4.3c0,.4.2.7.5,1s.6.4,1.1.4.7,0,.9-.3c.2-.2.4-.4.5-.6l1.2.6c-.1.2-.3.4-.5.7s-.5.5-.8.6c-.4.2-.8.3-1.3.3ZM340.9,30.5h2.8c0-.3-.2-.6-.4-.8-.2-.2-.6-.3-1-.3s-.7.1-1,.3c-.2.2-.4.5-.4.8Z"/>
        </g>
        <g class="cls-1">
          <path d="M346.6,34.1v-6h1.5v.7h.2c0-.2.2-.4.4-.5.2-.1.4-.2.7-.2h.7v1.3h-.7c-.4,0-.7.1-.9.3-.2.2-.4.5-.4.9v3.4h-1.5Z"/>
        </g>
        <g class="cls-1">
          <path d="M353.6,34.3c-.8,0-1.4-.2-1.9-.5s-.8-.8-.9-1.4l1.4-.4c0,.3.2.5.3.7s.3.3.5.3c.2,0,.4.1.6.1.4,0,.6,0,.8-.2s.3-.3.3-.5,0-.3-.2-.4c-.2,0-.4-.2-.8-.2h-.3c-.4-.1-.8-.2-1.1-.4-.3-.1-.6-.3-.8-.6-.2-.2-.3-.6-.3-1,0-.6.2-1,.6-1.4.4-.3,1-.5,1.7-.5s1.2.1,1.7.4.7.7.9,1.2l-1.4.4c0-.3-.2-.5-.4-.6-.2-.1-.4-.2-.7-.2s-.5,0-.7.2c-.2,0-.2.2-.2.4s0,.3.2.4.4.2.6.2h.3c.4.1.9.2,1.2.4.4.1.7.3.9.6.2.2.3.6.3,1,0,.6-.2,1.1-.7,1.4-.5.3-1.1.5-1.8.5Z"/>
        </g>
        <g class="cls-1">
          <path d="M357.5,35.9v-.8h.5c.4,0,.6-.2.6-.6v-.4h-.2c-.3,0-.6,0-.8-.3-.2-.2-.3-.4-.3-.7s.1-.6.3-.8.5-.3.8-.3.6.1.8.3.3.5.3.8v1.4c0,.9-.4,1.3-1.3,1.3h-.6Z"/>
        </g>
        <g class="cls-1">
          <path d="M365.3,34.1c-.5,0-.9,0-1.3-.3-.4-.2-.7-.4-.9-.8s-.3-.7-.3-1.2,0-.6.2-.9.3-.5.5-.6c.2-.2.5-.3.7-.4v-.2c-.4-.1-.7-.3-1-.6-.3-.3-.4-.7-.4-1.2s.1-.9.3-1.2c.2-.3.5-.6.9-.8.4-.2.8-.3,1.3-.3h1.3v1.2h-1c-.4,0-.7,0-.9.3-.2.2-.4.5-.4.9s0,.5.2.6c.1.2.3.3.5.4s.4.1.6.1h1.2v-1.1h1.5v1.1h1.1v1.2h-1.1v3.6h-3ZM365.6,32.9h1.2v-2.4h-1.2c-.4,0-.6.1-.9.3-.2.2-.4.5-.4.9s.1.7.4.9.5.3.9.3Z"/>
          <path d="M376.4,34.3c-.6,0-1.2-.1-1.7-.3-.5-.2-.9-.6-1.2-1-.3-.4-.4-1-.4-1.6v-.3h1.6v.3c0,.5.2.9.5,1.1.3.3.7.4,1.3.4s1-.1,1.2-.3.4-.5.4-.8,0-.4-.2-.6c-.1-.1-.3-.3-.6-.4-.3,0-.6-.2-.9-.3h-.3c-.6-.2-1.1-.4-1.5-.5-.4-.2-.7-.5-.9-.8-.2-.3-.3-.7-.3-1.2s.1-1,.4-1.3c.2-.4.6-.6,1-.8.4-.2,1-.3,1.6-.3s1.1.1,1.6.3.8.5,1.1.9c.3.4.4.9.4,1.5v.4h-1.6v-.4c0-.3,0-.6-.2-.8-.1-.2-.3-.3-.5-.4-.2,0-.5-.1-.8-.1-.5,0-.8,0-1.1.3-.2.2-.3.4-.3.7s0,.4.2.5c.1.1.3.3.5.4.2,0,.5.2.8.3h.3c.6.2,1.1.4,1.6.6.4.2.8.5,1,.8s.4.7.4,1.3-.1,1-.4,1.3c-.3.4-.6.7-1.1.9-.5.2-1,.3-1.7.3Z"/>
          <path d="M383.1,34.1c-.4,0-.7-.1-1-.4s-.4-.6-.4-1v-3.4h-1.5v-1.2h1.5v-1.8h1.5v1.8h1.6v1.2h-1.6v3.1c0,.2.1.4.3.4h1.2v1.2h-1.7Z"/>
          <path d="M386.3,34.1v-6h1.5v.7h.2c0-.2.2-.4.4-.5.2-.1.4-.2.7-.2h.7v1.3h-.7c-.4,0-.7.1-.9.3-.2.2-.4.5-.4.9v3.4h-1.5Z"/>
          <path d="M391.8,27.5c-.3,0-.5,0-.7-.3s-.3-.4-.3-.7,0-.5.3-.7.4-.3.7-.3.5,0,.7.3c.2.2.3.4.3.7s0,.5-.3.7c-.2.2-.4.3-.7.3ZM391,34.1v-6h1.5v6h-1.5Z"/>
          <path d="M394.2,36.5v-8.4h1.5v.7h.2c.1-.2.3-.4.6-.6.3-.2.7-.3,1.2-.3s.9.1,1.3.4c.4.2.7.6,1,1,.2.5.4,1,.4,1.7v.2c0,.6-.1,1.2-.4,1.7s-.6.8-1,1c-.4.2-.9.4-1.3.4s-.7,0-.9-.1-.4-.2-.6-.3-.3-.3-.4-.4h-.2v3.1h-1.5ZM397.3,33c.5,0,.9-.1,1.2-.4.3-.3.5-.7.5-1.3h0c0-.7-.2-1.1-.5-1.4-.3-.3-.7-.5-1.2-.5s-.9.1-1.2.5c-.3.3-.5.7-.5,1.3h0c0,.7.2,1.1.5,1.4.3.3.7.4,1.2.4Z"/>
          <path d="M401.9,36.5v-8.4h1.5v.7h.2c.1-.2.3-.4.6-.6.3-.2.7-.3,1.2-.3s.9.1,1.3.4c.4.2.7.6,1,1,.2.5.4,1,.4,1.7v.2c0,.6-.1,1.2-.4,1.7s-.6.8-1,1c-.4.2-.9.4-1.3.4s-.7,0-.9-.1-.4-.2-.6-.3c-.1-.1-.3-.3-.4-.4h-.2v3.1h-1.5ZM405,33c.5,0,.9-.1,1.2-.4.3-.3.5-.7.5-1.3h0c0-.7-.2-1.1-.5-1.4-.3-.3-.7-.5-1.2-.5s-.9.1-1.2.5c-.3.3-.5.7-.5,1.3h0c0,.7.2,1.1.5,1.4.3.3.7.4,1.2.4Z"/>
          <path d="M412.2,34.3c-.6,0-1.1-.1-1.6-.4-.5-.3-.8-.6-1.1-1.1s-.4-1-.4-1.6h0c0-.8.1-1.3.4-1.8s.6-.8,1-1.1c.4-.3,1-.4,1.6-.4s1.1.1,1.5.4c.4.3.8.6,1,1.1.2.5.4,1,.4,1.6v.5h-4.3c0,.4.2.7.5,1s.6.4,1.1.4.7,0,.9-.3c.2-.2.4-.4.5-.6l1.2.6c-.1.2-.3.4-.5.7s-.5.5-.8.6c-.4.2-.8.3-1.3.3ZM410.8,30.5h2.8c0-.3-.2-.6-.4-.8s-.6-.3-1-.3-.7.1-1,.3-.4.5-.4.8Z"/>
        </g>
        <g class="cls-1">
          <path d="M416.5,34.1v-6h1.5v.7h.2c0-.2.2-.4.4-.5.2-.1.4-.2.7-.2h.7v1.3h-.7c-.4,0-.7.1-.9.3-.2.2-.4.5-.4.9v3.4h-1.5Z"/>
        </g>
        <g class="cls-1">
          <path d="M423.5,34.3c-.8,0-1.4-.2-1.9-.5s-.8-.8-.9-1.4l1.4-.4c0,.3.2.5.3.7s.3.3.5.3c.2,0,.4.1.6.1.4,0,.6,0,.8-.2s.3-.3.3-.5,0-.3-.2-.4c-.2,0-.4-.2-.8-.2h-.3c-.4-.1-.8-.2-1.1-.4-.3-.1-.6-.3-.8-.6-.2-.2-.3-.6-.3-1,0-.6.2-1,.6-1.4.4-.3,1-.5,1.7-.5s1.2.1,1.7.4c.4.3.7.7.9,1.2l-1.4.4c0-.3-.2-.5-.4-.6s-.4-.2-.7-.2-.5,0-.7.2c-.2,0-.2.2-.2.4s0,.3.2.4.4.2.6.2h.3c.4.1.9.2,1.2.4.4.1.7.3.9.6.2.2.3.6.3,1,0,.6-.2,1.1-.7,1.4s-1.1.5-1.8.5Z"/>
        </g>
      </g>
      <line class="cls-3" x1="277.5" y1="22.6" x2="427" y2="22.6"/>
      <line class="cls-3" x1="277.5" y1="37.1" x2="427" y2="37.1"/>
      <rect class="cls-2" x="330.5" y="65" width="99.5" height="20"/>
      <g class="cls-1">
        <g class="cls-1">
          <path d="M333.7,79.1v-8.4h2.9l1.5,7.3h.2l1.5-7.3h2.9v8.4h-1.5v-7.2h-.2l-1.4,7.2h-2.6l-1.4-7.2h-.2v7.2h-1.5Z"/>
          <path d="M347.1,79.3c-.6,0-1.1-.1-1.6-.4-.5-.3-.8-.6-1.1-1.1s-.4-1-.4-1.6h0c0-.8.1-1.3.4-1.8s.6-.8,1-1.1c.4-.3,1-.4,1.6-.4s1.1.1,1.5.4c.4.3.8.6,1,1.1.2.5.4,1,.4,1.6v.5h-4.3c0,.4.2.7.5,1,.3.3.6.4,1.1.4s.7,0,.9-.3c.2-.2.4-.4.5-.6l1.2.6c-.1.2-.3.4-.5.7-.2.2-.5.5-.8.6s-.8.3-1.3.3ZM345.6,75.5h2.8c0-.3-.2-.6-.4-.8s-.6-.3-1-.3-.7.1-1,.3-.4.5-.4.8Z"/>
        </g>
        <g class="cls-1">
          <path d="M353.1,79.3c-.4,0-.8,0-1.1-.2-.3-.1-.6-.4-.8-.6-.2-.3-.3-.6-.3-1s0-.8.3-1c.2-.3.5-.5.8-.6.3-.1.7-.2,1.2-.2h1.6v-.3c0-.3,0-.5-.3-.7s-.5-.3-.8-.3-.7,0-.8.3c-.2.2-.3.4-.4.7l-1.4-.5c0-.3.2-.6.5-.8.2-.3.5-.5.9-.6.4-.2.8-.2,1.3-.2.8,0,1.4.2,1.9.6.5.4.7,1,.7,1.7v2.2c0,.2.1.4.3.4h.5v1.2h-1c-.3,0-.5,0-.7-.2-.2-.1-.3-.3-.3-.6h0s-.2,0-.2,0c0,0-.1.2-.2.4-.1.2-.3.3-.5.4-.2.1-.6.2-1,.2ZM353.4,78.1c.4,0,.8-.1,1-.4.3-.2.4-.5.4-.9h0c0-.1-1.5-.1-1.5-.1-.3,0-.5,0-.7.2s-.2.3-.2.5,0,.4.3.5.4.2.7.2Z"/>
        </g>
        <g class="cls-1">
          <path d="M360.6,79.3c-.8,0-1.4-.2-1.9-.5s-.8-.8-.9-1.4l1.4-.4c0,.3.1.5.3.7.1.2.3.3.5.3.2,0,.4.1.6.1.4,0,.6,0,.8-.2s.3-.3.3-.5,0-.3-.2-.4c-.2,0-.4-.2-.8-.2h-.3c-.4-.1-.8-.2-1.1-.4-.3-.1-.6-.3-.8-.6s-.3-.6-.3-1c0-.6.2-1,.6-1.4.4-.3,1-.5,1.7-.5s1.2.1,1.7.4.7.7.9,1.2l-1.4.4c0-.3-.2-.5-.4-.6-.2-.1-.4-.2-.7-.2s-.5,0-.7.2c-.2,0-.2.2-.2.4s0,.3.2.4.4.2.6.2h.3c.4.1.9.2,1.2.4.4.1.7.3.9.6.2.2.3.6.3,1,0,.6-.2,1.1-.7,1.4-.5.3-1.1.5-1.8.5Z"/>
          <path d="M366.7,79.2c-.5,0-.9-.1-1.2-.3s-.6-.5-.8-.9c-.2-.4-.3-.8-.3-1.3v-3.6h1.5v3.4c0,.4.1.8.3,1,.2.2.5.3.9.3s.8-.2,1.1-.5c.3-.3.4-.7.4-1.3v-3h1.5v6h-1.5v-.8h-.2c0,.2-.3.4-.5.6-.3.2-.7.3-1.2.3Z"/>
          <path d="M371.8,79.1v-6h1.5v.7h.2c0-.2.2-.4.4-.5.2-.1.4-.2.7-.2h.7v1.3h-.7c-.4,0-.7.1-.9.3-.2.2-.4.5-.4.9v3.4h-1.5Z"/>
          <path d="M377.3,72.5c-.3,0-.5,0-.7-.3s-.3-.4-.3-.7,0-.5.3-.7.4-.3.7-.3.5,0,.7.3c.2.2.3.4.3.7s0,.5-.3.7c-.2.2-.4.3-.7.3ZM376.6,79.1v-6h1.5v6h-1.5Z"/>
          <path d="M379.8,79.1v-6h1.5v.8h.2c0-.2.3-.4.5-.6.3-.2.7-.3,1.2-.3s.9.1,1.2.3c.3.2.6.5.8.9.2.4.3.8.3,1.3v3.6h-1.5v-3.4c0-.4-.1-.8-.3-1-.2-.2-.5-.3-.9-.3s-.8.2-1.1.5c-.3.3-.4.7-.4,1.3v3h-1.5Z"/>
          <path d="M386.9,76.2v-.2c0-.6.1-1.2.4-1.6s.6-.8,1-1c.4-.2.9-.4,1.3-.4s1,0,1.2.3c.3.2.5.4.6.6h.2v-.7h1.5v7c0,.4-.1.7-.4,1s-.6.4-1,.4h-4v-1.3h3.5c.2,0,.3-.1.3-.4v-1.5h-.2c0,.1-.2.3-.3.4-.1.1-.3.2-.6.3-.2,0-.5.1-.9.1s-.9-.1-1.3-.4c-.4-.2-.7-.6-1-1-.2-.4-.4-1-.4-1.6ZM390,77.8c.5,0,.9-.1,1.2-.4s.5-.7.5-1.2h0c0-.7-.2-1.1-.5-1.4-.3-.3-.7-.4-1.2-.4s-.9.1-1.2.4c-.3.3-.5.7-.5,1.3h0c0,.7.2,1.1.5,1.4.3.3.7.4,1.2.4Z"/>
        </g>
        <g class="cls-1">
          <path d="M399.2,79.1v-7h-2.4v-1.4h6.5v1.4h-2.4v7h-1.6Z"/>
        </g>
        <g class="cls-1">
          <path d="M406,79.3c-.6,0-1.1-.1-1.6-.4-.5-.2-.8-.6-1.1-1-.3-.5-.4-1-.4-1.6v-.2c0-.6.1-1.2.4-1.6.3-.5.6-.8,1.1-1,.5-.2,1-.4,1.6-.4s1.1.1,1.6.4.8.6,1.1,1c.3.5.4,1,.4,1.6v.2c0,.6-.1,1.2-.4,1.6-.3.5-.6.8-1.1,1-.5.2-1,.4-1.6.4ZM406,77.9c.5,0,.8-.2,1.2-.5.3-.3.5-.7.5-1.3h0c0-.7-.1-1.1-.4-1.4-.3-.3-.7-.5-1.2-.5s-.8.2-1.2.5-.5.7-.5,1.3h0c0,.7.2,1.1.5,1.4s.7.5,1.2.5Z"/>
          <path d="M413.4,79.3c-.6,0-1.1-.1-1.6-.4-.5-.2-.8-.6-1.1-1-.3-.5-.4-1-.4-1.6v-.2c0-.6.1-1.2.4-1.6.3-.5.6-.8,1.1-1,.5-.2,1-.4,1.6-.4s1.1.1,1.6.4.8.6,1.1,1c.3.5.4,1,.4,1.6v.2c0,.6-.1,1.2-.4,1.6-.3.5-.6.8-1.1,1-.5.2-1,.4-1.6.4ZM413.4,77.9c.5,0,.8-.2,1.2-.5.3-.3.5-.7.5-1.3h0c0-.7-.1-1.1-.4-1.4-.3-.3-.7-.5-1.2-.5s-.8.2-1.2.5-.5.7-.5,1.3h0c0,.7.2,1.1.5,1.4s.7.5,1.2.5Z"/>
          <path d="M417.9,79.1v-8.4h1.5v8.4h-1.5Z"/>
          <path d="M423.6,79.3c-.8,0-1.4-.2-1.9-.5s-.8-.8-.9-1.4l1.4-.4c0,.3.2.5.3.7s.3.3.5.3c.2,0,.4.1.6.1.4,0,.6,0,.8-.2s.3-.3.3-.5,0-.3-.2-.4c-.2,0-.4-.2-.8-.2h-.3c-.4-.1-.8-.2-1.1-.4-.3-.1-.6-.3-.8-.6-.2-.2-.3-.6-.3-1,0-.6.2-1,.6-1.4.4-.3,1-.5,1.7-.5s1.2.1,1.7.4c.4.3.7.7.9,1.2l-1.4.4c0-.3-.2-.5-.4-.6s-.4-.2-.7-.2-.5,0-.7.2c-.2,0-.2.2-.2.4s0,.3.2.4.4.2.6.2h.3c.4.1.9.2,1.2.4.4.1.7.3.9.6.2.2.3.6.3,1,0,.6-.2,1.1-.7,1.4s-1.1.5-1.8.5Z"/>
        </g>
      </g>
      <line class="cls-3" x1="333.5" y1="67.6" x2="427" y2="67.6"/>
      <line class="cls-3" x1="333.5" y1="82.1" x2="427" y2="82.1"/>
      <rect class="cls-2" x="246.5" y="110" width="183.5" height="20"/>
      <g class="cls-1">
        <g class="cls-1">
          <path d="M249.1,124.1v-8.4h3.5c.5,0,1,.1,1.4.3.4.2.7.5.9.9.2.4.3.8.3,1.4v.2c0,.5-.1,1-.4,1.4s-.6.7-1,.9-.9.3-1.4.3h-1.9v3.1h-1.6ZM250.7,119.6h1.7c.4,0,.7-.1.9-.3.2-.2.3-.5.3-.9h0c0-.5-.1-.8-.3-1-.2-.2-.5-.3-.9-.3h-1.7v2.4Z"/>
        </g>
        <g class="cls-1">
          <path d="M258.9,124.3c-.6,0-1.1-.1-1.6-.4-.5-.3-.8-.6-1.1-1.1s-.4-1-.4-1.6h0c0-.8.1-1.3.4-1.8s.6-.8,1-1.1,1-.4,1.6-.4,1.1.1,1.5.4c.4.3.8.6,1,1.1.2.5.4,1,.4,1.6v.5h-4.3c0,.4.2.7.5,1s.6.4,1.1.4.7,0,.9-.3c.2-.2.4-.4.5-.6l1.2.6c-.1.2-.3.4-.5.7-.2.2-.5.5-.8.6-.4.2-.8.3-1.3.3ZM257.5,120.5h2.8c0-.3-.2-.6-.4-.8s-.6-.3-1-.3-.7.1-1,.3-.4.5-.4.8Z"/>
        </g>
        <g class="cls-1">
          <path d="M263.2,124.1v-6h1.5v.7h.2c0-.2.2-.4.4-.5.2-.1.4-.2.7-.2h.7v1.3h-.7c-.4,0-.7.1-.9.3-.2.2-.4.5-.4.9v3.4h-1.5Z"/>
        </g>
        <g class="cls-1">
          <path d="M270.2,124.3c-.8,0-1.4-.2-1.9-.5s-.8-.8-.9-1.4l1.4-.4c0,.3.1.5.3.7.1.2.3.3.5.3.2,0,.4.1.6.1.4,0,.6,0,.8-.2s.3-.3.3-.5,0-.3-.2-.4c-.2,0-.4-.2-.8-.2h-.3c-.4-.1-.8-.2-1.1-.4-.3-.1-.6-.3-.8-.6s-.3-.6-.3-1c0-.6.2-1,.6-1.4.4-.3,1-.5,1.7-.5s1.2.1,1.7.4c.4.3.7.7.9,1.2l-1.4.4c0-.3-.2-.5-.4-.6-.2-.1-.4-.2-.7-.2s-.5,0-.7.2c-.2,0-.2.2-.2.4s0,.3.2.4.4.2.6.2h.3c.4.1.9.2,1.2.4s.7.3.9.6c.2.2.3.6.3,1,0,.6-.2,1.1-.7,1.4s-1.1.5-1.8.5Z"/>
          <path d="M276.8,124.3c-.6,0-1.1-.1-1.6-.4-.5-.2-.8-.6-1.1-1-.3-.5-.4-1-.4-1.6v-.2c0-.6.1-1.2.4-1.6.3-.5.6-.8,1.1-1s1-.4,1.6-.4,1.1.1,1.6.4c.5.2.8.6,1.1,1,.3.5.4,1,.4,1.6v.2c0,.6-.1,1.2-.4,1.6-.3.5-.6.8-1.1,1-.5.2-1,.4-1.6.4ZM276.8,122.9c.5,0,.8-.2,1.2-.5s.5-.7.5-1.3h0c0-.7-.2-1.1-.5-1.4s-.7-.5-1.2-.5-.8.2-1.2.5c-.3.3-.5.7-.5,1.3h0c0,.7.2,1.1.5,1.4.3.3.7.5,1.2.5Z"/>
          <path d="M281.4,124.1v-6h1.5v.8h.2c0-.2.3-.4.5-.6.3-.2.7-.3,1.2-.3s.9.1,1.2.3c.3.2.6.5.8.9.2.4.3.8.3,1.3v3.6h-1.5v-3.4c0-.4-.1-.8-.3-1-.2-.2-.5-.3-.9-.3s-.8.2-1.1.5c-.3.3-.4.7-.4,1.3v3h-1.5Z"/>
          <path d="M290.6,124.3c-.4,0-.8,0-1.1-.2-.3-.1-.6-.4-.8-.6-.2-.3-.3-.6-.3-1s0-.8.3-1c.2-.3.5-.5.8-.6.3-.1.7-.2,1.2-.2h1.6v-.3c0-.3,0-.5-.3-.7s-.5-.3-.8-.3-.7,0-.8.3c-.2.2-.3.4-.4.7l-1.4-.5c0-.3.2-.6.5-.8.2-.3.5-.5.9-.6.4-.2.8-.2,1.3-.2.8,0,1.4.2,1.9.6.5.4.7,1,.7,1.7v2.2c0,.2.1.4.3.4h.5v1.2h-1c-.3,0-.5,0-.7-.2-.2-.1-.3-.3-.3-.6h0s-.2,0-.2,0c0,0-.1.2-.2.4-.1.2-.3.3-.5.4s-.6.2-1,.2ZM290.9,123.1c.4,0,.8-.1,1-.4.3-.2.4-.5.4-.9h0c0-.1-1.5-.1-1.5-.1-.3,0-.5,0-.7.2s-.2.3-.2.5,0,.4.3.5.4.2.7.2Z"/>
          <path d="M295.7,124.1v-8.4h1.5v8.4h-1.5Z"/>
          <path d="M301.9,124.1v-8.4h3.5c.5,0,1,.1,1.4.3s.7.5.9.9c.2.4.3.8.3,1.4v.2c0,.5-.1,1-.4,1.4-.2.4-.6.7-1,.9-.4.2-.9.3-1.4.3h-1.9v3.1h-1.6ZM303.5,119.6h1.7c.4,0,.7-.1.9-.3.2-.2.3-.5.3-.9h0c0-.5-.1-.8-.3-1-.2-.2-.5-.3-.9-.3h-1.7v2.4Z"/>
        </g>
        <g class="cls-1">
          <path d="M309.1,124.1v-6h1.5v.7h.2c0-.2.2-.4.4-.5.2-.1.4-.2.7-.2h.7v1.3h-.7c-.4,0-.7.1-.9.3s-.4.5-.4.9v3.4h-1.5Z"/>
          <path d="M316.2,124.3c-.6,0-1.1-.1-1.6-.4-.5-.2-.8-.6-1.1-1-.3-.5-.4-1-.4-1.6v-.2c0-.6.1-1.2.4-1.6.3-.5.6-.8,1.1-1,.5-.2,1-.4,1.6-.4s1.1.1,1.6.4.8.6,1.1,1c.3.5.4,1,.4,1.6v.2c0,.6-.1,1.2-.4,1.6-.3.5-.6.8-1.1,1-.5.2-1,.4-1.6.4ZM316.2,122.9c.5,0,.8-.2,1.2-.5.3-.3.5-.7.5-1.3h0c0-.7-.1-1.1-.4-1.4-.3-.3-.7-.5-1.2-.5s-.8.2-1.2.5-.5.7-.5,1.3h0c0,.7.2,1.1.5,1.4s.7.5,1.2.5Z"/>
          <path d="M322.6,124.1c-.4,0-.7-.1-1-.4s-.4-.6-.4-1v-3.4h-1.5v-1.2h1.5v-1.8h1.5v1.8h1.6v1.2h-1.6v3.1c0,.2.1.4.3.4h1.2v1.2h-1.7Z"/>
        </g>
        <g class="cls-1">
          <path d="M328.7,124.3c-.6,0-1.1-.1-1.6-.4-.5-.3-.8-.6-1.1-1.1s-.4-1-.4-1.6h0c0-.8.1-1.3.4-1.8s.6-.8,1-1.1,1-.4,1.6-.4,1.1.1,1.5.4c.4.3.8.6,1,1.1.2.5.4,1,.4,1.6v.5h-4.3c0,.4.2.7.5,1s.6.4,1.1.4.7,0,.9-.3c.2-.2.4-.4.5-.6l1.2.6c-.1.2-.3.4-.5.7-.2.2-.5.5-.8.6-.4.2-.8.3-1.3.3ZM327.2,120.5h2.8c0-.3-.2-.6-.4-.8s-.6-.3-1-.3-.7.1-1,.3-.4.5-.4.8Z"/>
        </g>
        <g class="cls-1">
          <path d="M335.8,124.3c-.6,0-1.1-.1-1.6-.4-.5-.2-.8-.6-1.1-1-.3-.5-.4-1-.4-1.7v-.2c0-.6.1-1.2.4-1.7.3-.5.6-.8,1.1-1,.5-.2,1-.4,1.6-.4s1.1.1,1.5.3c.4.2.7.5,1,.8s.4.7.5,1.2l-1.5.3c0-.2-.1-.5-.2-.6-.1-.2-.3-.3-.5-.5-.2-.1-.5-.2-.8-.2s-.6,0-.8.2-.4.3-.6.6c-.1.3-.2.6-.2,1h0c0,.5,0,.8.2,1.1.1.3.3.5.6.6s.5.2.8.2c.5,0,.8-.1,1-.4s.4-.5.5-.9l1.5.3c-.1.4-.3.8-.5,1.2s-.6.6-1,.8-.9.3-1.5.3Z"/>
        </g>
        <g class="cls-1">
          <path d="M342.1,124.1c-.4,0-.7-.1-1-.4s-.4-.6-.4-1v-3.4h-1.5v-1.2h1.5v-1.8h1.5v1.8h1.6v1.2h-1.6v3.1c0,.2.1.4.3.4h1.2v1.2h-1.7Z"/>
          <path d="M346.1,117.5c-.3,0-.5,0-.7-.3-.2-.2-.3-.4-.3-.7s0-.5.3-.7c.2-.2.4-.3.7-.3s.5,0,.7.3c.2.2.3.4.3.7s0,.5-.3.7c-.2.2-.4.3-.7.3ZM345.3,124.1v-6h1.5v6h-1.5Z"/>
        </g>
        <g class="cls-1">
          <path d="M349.7,124.1l-1.9-6h1.6l1.4,4.8h.2l1.4-4.8h1.6l-1.9,6h-2.4Z"/>
        </g>
        <g class="cls-1">
          <path d="M357.5,124.3c-.6,0-1.1-.1-1.6-.4-.5-.3-.8-.6-1.1-1.1s-.4-1-.4-1.6h0c0-.8.1-1.3.4-1.8s.6-.8,1-1.1,1-.4,1.6-.4,1.1.1,1.5.4c.4.3.8.6,1,1.1.2.5.4,1,.4,1.6v.5h-4.3c0,.4.2.7.5,1s.6.4,1.1.4.7,0,.9-.3c.2-.2.4-.4.5-.6l1.2.6c-.1.2-.3.4-.5.7-.2.2-.5.5-.8.6-.4.2-.8.3-1.3.3ZM356,120.5h2.8c0-.3-.2-.6-.4-.8s-.6-.3-1-.3-.7.1-1,.3-.4.5-.4.8Z"/>
          <path d="M364.7,124.1v-8.4h5.4v1.4h-3.8v2h3.5v1.4h-3.5v2.1h3.9v1.4h-5.5Z"/>
          <path d="M375.8,126.5v-3.1h-.2c0,.1-.2.3-.3.4s-.3.2-.6.3-.5.1-.9.1-.9-.1-1.3-.4c-.4-.2-.7-.6-1-1s-.4-1-.4-1.7v-.2c0-.6.1-1.2.4-1.7.2-.5.6-.8,1-1,.4-.2.9-.4,1.3-.4s1,0,1.2.3c.3.2.5.4.6.6h.2v-.7h1.5v8.4h-1.5ZM374.2,123c.5,0,.9-.1,1.2-.4.3-.3.5-.7.5-1.3h0c0-.7-.2-1.1-.5-1.4-.3-.3-.7-.5-1.2-.5s-.9.1-1.2.5c-.3.3-.5.7-.5,1.3h0c0,.7.2,1.1.5,1.4.3.3.7.4,1.2.4Z"/>
          <path d="M381.3,124.2c-.5,0-.9-.1-1.2-.3s-.6-.5-.8-.9c-.2-.4-.3-.8-.3-1.3v-3.6h1.5v3.4c0,.4.1.8.3,1,.2.2.5.3.9.3s.8-.2,1.1-.5c.3-.3.4-.7.4-1.3v-3h1.5v6h-1.5v-.8h-.2c0,.2-.3.4-.5.6-.3.2-.7.3-1.2.3Z"/>
          <path d="M387.2,117.5c-.3,0-.5,0-.7-.3-.2-.2-.3-.4-.3-.7s0-.5.3-.7c.2-.2.4-.3.7-.3s.5,0,.7.3c.2.2.3.4.3.7s0,.5-.3.7c-.2.2-.4.3-.7.3ZM386.4,124.1v-6h1.5v6h-1.5Z"/>
          <path d="M389.6,126.5v-8.4h1.5v.7h.2c.1-.2.3-.4.6-.6.3-.2.7-.3,1.2-.3s.9.1,1.3.4c.4.2.7.6,1,1,.2.5.4,1,.4,1.7v.2c0,.6-.1,1.2-.4,1.7s-.6.8-1,1c-.4.2-.9.4-1.3.4s-.7,0-.9-.1-.4-.2-.6-.3c-.1-.1-.3-.3-.4-.4h-.2v3.1h-1.5ZM392.7,123c.5,0,.9-.1,1.2-.4.3-.3.5-.7.5-1.3h0c0-.7-.2-1.1-.5-1.4-.3-.3-.7-.5-1.2-.5s-.9.1-1.2.5c-.3.3-.5.7-.5,1.3h0c0,.7.2,1.1.5,1.4.3.3.7.4,1.2.4Z"/>
          <path d="M397.3,124.1v-6h1.5v.6h.2c.1-.2.3-.4.5-.5.2-.1.6-.2.9-.2s.8,0,1,.2.5.4.6.6h.2c.1-.3.3-.5.6-.6s.6-.3,1.1-.3.7,0,1,.2c.3.2.5.4.7.7.2.3.3.7.3,1.2v3.9h-1.5v-3.8c0-.3,0-.6-.3-.7s-.4-.2-.7-.2-.6.1-.8.3c-.2.2-.3.5-.3.9v3.5h-1.5v-3.8c0-.3,0-.6-.3-.7s-.4-.2-.7-.2-.6.1-.8.3c-.2.2-.3.5-.3.9v3.5h-1.5Z"/>
          <path d="M410.2,124.3c-.6,0-1.1-.1-1.6-.4s-.8-.6-1.1-1.1-.4-1-.4-1.6h0c0-.8.1-1.3.4-1.8s.6-.8,1-1.1c.4-.3,1-.4,1.6-.4s1.1.1,1.5.4c.4.3.8.6,1,1.1.2.5.4,1,.4,1.6v.5h-4.3c0,.4.2.7.5,1s.6.4,1.1.4.7,0,.9-.3c.2-.2.4-.4.5-.6l1.2.6c-.1.2-.3.4-.5.7s-.5.5-.8.6c-.4.2-.8.3-1.3.3ZM408.8,120.5h2.8c0-.3-.2-.6-.4-.8-.2-.2-.6-.3-1-.3s-.7.1-1,.3c-.2.2-.4.5-.4.8Z"/>
        </g>
        <g class="cls-1">
          <path d="M414.6,124.1v-6h1.5v.8h.2c0-.2.3-.4.5-.6.3-.2.7-.3,1.2-.3s.9.1,1.2.3c.3.2.6.5.8.9.2.4.3.8.3,1.3v3.6h-1.5v-3.4c0-.4-.1-.8-.3-1-.2-.2-.5-.3-.9-.3s-.8.2-1.1.5c-.3.3-.4.7-.4,1.3v3h-1.5Z"/>
        </g>
        <g class="cls-1">
          <path d="M424.1,124.1c-.4,0-.7-.1-1-.4s-.4-.6-.4-1v-3.4h-1.5v-1.2h1.5v-1.8h1.5v1.8h1.6v1.2h-1.6v3.1c0,.2.1.4.3.4h1.2v1.2h-1.7Z"/>
        </g>
      </g>
      <line class="cls-3" x1="248.5" y1="112.6" x2="427" y2="112.6"/>
      <line class="cls-3" x1="248.5" y1="127.1" x2="427" y2="127.1"/>
      <rect class="cls-2" x="326.5" y="155" width="103.5" height="20"/>
      <g class="cls-1">
        <g class="cls-1">
          <path d="M329.7,169.1v-8.4h5.4v1.4h-3.8v2h3.5v1.4h-3.5v2.1h3.9v1.4h-5.5Z"/>
          <path d="M336.4,169.1v-8.4h1.5v8.4h-1.5Z"/>
          <path d="M342.3,169.3c-.6,0-1.1-.1-1.6-.4s-.8-.6-1.1-1.1-.4-1-.4-1.6h0c0-.8.1-1.3.4-1.8s.6-.8,1-1.1c.4-.3,1-.4,1.6-.4s1.1.1,1.5.4c.4.3.8.6,1,1.1.2.5.4,1,.4,1.6v.5h-4.3c0,.4.2.7.5,1s.6.4,1.1.4.7,0,.9-.3c.2-.2.4-.4.5-.6l1.2.6c-.1.2-.3.4-.5.7s-.5.5-.8.6c-.4.2-.8.3-1.3.3ZM340.9,165.5h2.8c0-.3-.2-.6-.4-.8-.2-.2-.6-.3-1-.3s-.7.1-1,.3c-.2.2-.4.5-.4.8Z"/>
        </g>
        <g class="cls-1">
          <path d="M349.3,169.3c-.6,0-1.1-.1-1.6-.4-.5-.2-.8-.6-1.1-1s-.4-1-.4-1.7v-.2c0-.6.1-1.2.4-1.7s.6-.8,1.1-1c.5-.2,1-.4,1.6-.4s1.1.1,1.5.3c.4.2.7.5,1,.8s.4.7.5,1.2l-1.5.3c0-.2-.1-.5-.2-.6-.1-.2-.3-.3-.5-.5-.2-.1-.5-.2-.8-.2s-.6,0-.8.2c-.2.1-.4.3-.6.6-.1.3-.2.6-.2,1h0c0,.5,0,.8.2,1.1.1.3.3.5.6.6.2.1.5.2.8.2.5,0,.8-.1,1-.4.2-.2.4-.5.5-.9l1.5.3c-.1.4-.3.8-.5,1.2s-.6.6-1,.8c-.4.2-.9.3-1.5.3Z"/>
        </g>
        <g class="cls-1">
          <path d="M355.7,169.1c-.4,0-.7-.1-1-.4s-.4-.6-.4-1v-3.4h-1.5v-1.2h1.5v-1.8h1.5v1.8h1.6v1.2h-1.6v3.1c0,.2.1.4.3.4h1.2v1.2h-1.7Z"/>
        </g>
        <g class="cls-1">
          <path d="M358.9,169.1v-6h1.5v.7h.2c0-.2.2-.4.4-.5.2-.1.4-.2.7-.2h.7v1.3h-.7c-.4,0-.7.1-.9.3-.2.2-.4.5-.4.9v3.4h-1.5Z"/>
        </g>
        <g class="cls-1">
          <path d="M366.2,169.3c-.6,0-1.1-.1-1.6-.4-.5-.2-.8-.6-1.1-1-.3-.5-.4-1-.4-1.6v-.2c0-.6.1-1.2.4-1.6.3-.5.6-.8,1.1-1,.5-.2,1-.4,1.6-.4s1.1.1,1.6.4.8.6,1.1,1c.3.5.4,1,.4,1.6v.2c0,.6-.1,1.2-.4,1.6-.3.5-.6.8-1.1,1-.5.2-1,.4-1.6.4ZM366.2,167.9c.5,0,.8-.2,1.2-.5.3-.3.5-.7.5-1.3h0c0-.7-.1-1.1-.5-1.4-.3-.3-.7-.5-1.2-.5s-.8.2-1.2.5-.5.7-.5,1.3h0c0,.7.2,1.1.5,1.4s.7.5,1.2.5Z"/>
          <path d="M370.7,169.1v-6h1.5v.8h.2c0-.2.3-.4.5-.6.3-.2.7-.3,1.2-.3s.9.1,1.2.3c.3.2.6.5.8.9.2.4.3.8.3,1.3v3.6h-1.5v-3.4c0-.4-.1-.8-.3-1-.2-.2-.5-.3-.9-.3s-.8.2-1.1.5c-.3.3-.4.7-.4,1.3v3h-1.5Z"/>
          <path d="M378.9,162.5c-.3,0-.5,0-.7-.3-.2-.2-.3-.4-.3-.7s0-.5.3-.7c.2-.2.4-.3.7-.3s.5,0,.7.3.3.4.3.7,0,.5-.3.7-.4.3-.7.3ZM378.1,169.1v-6h1.5v6h-1.5Z"/>
          <path d="M384.1,169.3c-.6,0-1.1-.1-1.6-.4-.5-.2-.8-.6-1.1-1-.3-.5-.4-1-.4-1.7v-.2c0-.6.1-1.2.4-1.7.3-.5.6-.8,1.1-1,.5-.2,1-.4,1.6-.4s1.1.1,1.5.3c.4.2.7.5,1,.8s.4.7.5,1.2l-1.5.3c0-.2-.1-.5-.2-.6-.1-.2-.3-.3-.5-.5-.2-.1-.5-.2-.8-.2s-.6,0-.8.2c-.2.1-.4.3-.6.6-.1.3-.2.6-.2,1h0c0,.5,0,.8.2,1.1s.3.5.6.6c.2.1.5.2.8.2.5,0,.8-.1,1-.4s.4-.5.4-.9l1.5.3c-.1.4-.3.8-.5,1.2s-.6.6-1,.8c-.4.2-.9.3-1.5.3Z"/>
          <path d="M390.8,169.3c-.8,0-1.4-.2-1.9-.5s-.8-.8-.9-1.4l1.4-.4c0,.3.1.5.3.7.1.2.3.3.5.3.2,0,.4.1.6.1.4,0,.6,0,.8-.2s.3-.3.3-.5,0-.3-.2-.4c-.2,0-.4-.2-.8-.2h-.3c-.4-.1-.8-.2-1.1-.4-.3-.1-.6-.3-.8-.6s-.3-.6-.3-1c0-.6.2-1,.6-1.4.4-.3,1-.5,1.7-.5s1.2.1,1.7.4.7.7.9,1.2l-1.4.4c0-.3-.2-.5-.4-.6-.2-.1-.4-.2-.7-.2s-.5,0-.7.2c-.2,0-.2.2-.2.4s0,.3.2.4.4.2.6.2h.3c.4.1.9.2,1.2.4.4.1.7.3.9.6.2.2.3.6.3,1,0,.6-.2,1.1-.7,1.4-.5.3-1.1.5-1.8.5Z"/>
        </g>
        <g class="cls-1">
          <path d="M399.2,169.1v-7h-2.4v-1.4h6.5v1.4h-2.4v7h-1.6Z"/>
        </g>
        <g class="cls-1">
          <path d="M406,169.3c-.6,0-1.1-.1-1.6-.4-.5-.2-.8-.6-1.1-1-.3-.5-.4-1-.4-1.6v-.2c0-.6.1-1.2.4-1.6.3-.5.6-.8,1.1-1,.5-.2,1-.4,1.6-.4s1.1.1,1.6.4.8.6,1.1,1c.3.5.4,1,.4,1.6v.2c0,.6-.1,1.2-.4,1.6-.3.5-.6.8-1.1,1-.5.2-1,.4-1.6.4ZM406,167.9c.5,0,.8-.2,1.2-.5.3-.3.5-.7.5-1.3h0c0-.7-.1-1.1-.4-1.4-.3-.3-.7-.5-1.2-.5s-.8.2-1.2.5-.5.7-.5,1.3h0c0,.7.2,1.1.5,1.4s.7.5,1.2.5Z"/>
          <path d="M413.4,169.3c-.6,0-1.1-.1-1.6-.4-.5-.2-.8-.6-1.1-1-.3-.5-.4-1-.4-1.6v-.2c0-.6.1-1.2.4-1.6.3-.5.6-.8,1.1-1,.5-.2,1-.4,1.6-.4s1.1.1,1.6.4.8.6,1.1,1c.3.5.4,1,.4,1.6v.2c0,.6-.1,1.2-.4,1.6-.3.5-.6.8-1.1,1-.5.2-1,.4-1.6.4ZM413.4,167.9c.5,0,.8-.2,1.2-.5.3-.3.5-.7.5-1.3h0c0-.7-.1-1.1-.4-1.4-.3-.3-.7-.5-1.2-.5s-.8.2-1.2.5-.5.7-.5,1.3h0c0,.7.2,1.1.5,1.4s.7.5,1.2.5Z"/>
          <path d="M417.9,169.1v-8.4h1.5v8.4h-1.5Z"/>
          <path d="M423.6,169.3c-.8,0-1.4-.2-1.9-.5s-.8-.8-.9-1.4l1.4-.4c0,.3.2.5.3.7s.3.3.5.3c.2,0,.4.1.6.1.4,0,.6,0,.8-.2s.3-.3.3-.5,0-.3-.2-.4c-.2,0-.4-.2-.8-.2h-.3c-.4-.1-.8-.2-1.1-.4-.3-.1-.6-.3-.8-.6-.2-.2-.3-.6-.3-1,0-.6.2-1,.6-1.4.4-.3,1-.5,1.7-.5s1.2.1,1.7.4c.4.3.7.7.9,1.2l-1.4.4c0-.3-.2-.5-.4-.6s-.4-.2-.7-.2-.5,0-.7.2c-.2,0-.2.2-.2.4s0,.3.2.4.4.2.6.2h.3c.4.1.9.2,1.2.4.4.1.7.3.9.6.2.2.3.6.3,1,0,.6-.2,1.1-.7,1.4s-1.1.5-1.8.5Z"/>
        </g>
      </g>
      <line class="cls-3" x1="329.5" y1="157.6" x2="427" y2="157.6"/>
      <line class="cls-3" x1="329.5" y1="172.1" x2="427" y2="172.1"/>
      <rect class="cls-2" x="329.5" y="215" width="100.5" height="20"/>
      <g class="cls-1">
        <g class="cls-1">
          <path d="M335.9,229.3c-1,0-1.9-.3-2.5-.9s-.9-1.4-.9-2.5v-2c0-1.1.3-1.9.9-2.5s1.4-.9,2.5-.9,1.8.3,2.4.8.8,1.3.8,2.3h0c0,0-1.6,0-1.6,0h0c0-.6-.1-1-.4-1.3-.3-.3-.7-.5-1.3-.5s-1,.2-1.3.5c-.3.3-.5.8-.5,1.4v2.1c0,.6.2,1,.5,1.4.3.3.8.5,1.3.5s1-.2,1.3-.5c.3-.3.4-.7.4-1.2v-.2h1.6v.2c0,1-.3,1.8-.8,2.3-.6.6-1.4.8-2.4.8Z"/>
          <path d="M340.5,229.1v-8.4h1.5v8.4h-1.5Z"/>
          <path d="M344.5,222.5c-.3,0-.5,0-.7-.3-.2-.2-.3-.4-.3-.7s0-.5.3-.7c.2-.2.4-.3.7-.3s.5,0,.7.3c.2.2.3.4.3.7s0,.5-.3.7c-.2.2-.4.3-.7.3ZM343.7,229.1v-6h1.5v6h-1.5Z"/>
          <path d="M346.9,231.5v-8.4h1.5v.7h.2c.1-.2.3-.4.6-.6.3-.2.7-.3,1.2-.3s.9.1,1.3.4c.4.2.7.6,1,1,.2.5.4,1,.4,1.7v.2c0,.6-.1,1.2-.4,1.7s-.6.8-1,1c-.4.2-.9.4-1.3.4s-.7,0-.9-.1c-.2,0-.4-.2-.6-.3-.1-.1-.3-.3-.4-.4h-.2v3.1h-1.5ZM350,228c.5,0,.9-.1,1.2-.4.3-.3.5-.7.5-1.3h0c0-.7-.2-1.1-.5-1.4-.3-.3-.7-.5-1.2-.5s-.9.1-1.2.5c-.3.3-.5.7-.5,1.3h0c0,.7.2,1.1.5,1.4.3.3.7.4,1.2.4Z"/>
          <path d="M358.1,229.3c-.5,0-.9,0-1.2-.3-.3-.2-.5-.4-.6-.6h-.2v.7h-1.5v-8.4h1.5v3.1h.2c0-.1.2-.3.4-.4.1-.1.3-.2.6-.3s.5-.1.9-.1.9.1,1.3.4c.4.2.7.6,1,1,.2.5.4,1,.4,1.7v.2c0,.6-.1,1.2-.4,1.7s-.6.8-1,1c-.4.2-.9.4-1.3.4ZM357.7,228c.5,0,.9-.1,1.2-.4.3-.3.5-.7.5-1.3h0c0-.7-.2-1.1-.5-1.4-.3-.3-.7-.5-1.2-.5s-.9.1-1.2.5c-.3.3-.5.7-.5,1.3h0c0,.7.2,1.1.5,1.4.3.3.7.4,1.2.4Z"/>
          <path d="M365,229.3c-.6,0-1.1-.1-1.6-.4-.5-.2-.8-.6-1.1-1-.3-.5-.4-1-.4-1.6v-.2c0-.6.1-1.2.4-1.6.3-.5.6-.8,1.1-1s1-.4,1.6-.4,1.1.1,1.6.4c.5.2.8.6,1.1,1,.3.5.4,1,.4,1.6v.2c0,.6-.1,1.2-.4,1.6-.3.5-.6.8-1.1,1-.5.2-1,.4-1.6.4ZM365,227.9c.5,0,.8-.2,1.2-.5s.5-.7.5-1.3h0c0-.7-.2-1.1-.5-1.4s-.7-.5-1.2-.5-.8.2-1.2.5c-.3.3-.5.7-.5,1.3h0c0,.7.2,1.1.5,1.4.3.3.7.5,1.2.5Z"/>
          <path d="M371.4,229.3c-.4,0-.8,0-1.1-.2-.3-.1-.6-.4-.8-.6-.2-.3-.3-.6-.3-1s0-.8.3-1c.2-.3.5-.5.8-.6.3-.1.7-.2,1.2-.2h1.6v-.3c0-.3,0-.5-.3-.7s-.5-.3-.8-.3-.7,0-.8.3c-.2.2-.3.4-.4.7l-1.4-.5c0-.3.2-.6.5-.8.2-.3.5-.5.9-.6.4-.2.8-.2,1.3-.2.8,0,1.4.2,1.9.6.5.4.7,1,.7,1.7v2.2c0,.2.1.4.3.4h.5v1.2h-1c-.3,0-.5,0-.7-.2-.2-.1-.3-.3-.3-.6h0s-.2,0-.2,0c0,0-.1.2-.2.4-.1.2-.3.3-.5.4s-.6.2-1,.2ZM371.7,228.1c.4,0,.8-.1,1-.4.3-.2.4-.5.4-.9h0c0-.1-1.5-.1-1.5-.1-.3,0-.5,0-.7.2s-.2.3-.2.5,0,.4.3.5.4.2.7.2Z"/>
        </g>
        <g class="cls-1">
          <path d="M376.3,229.1v-6h1.5v.7h.2c0-.2.2-.4.4-.5.2-.1.4-.2.7-.2h.7v1.3h-.7c-.4,0-.7.1-.9.3-.2.2-.4.5-.4.9v3.4h-1.5Z"/>
        </g>
        <g class="cls-1">
          <path d="M383.2,229.3c-.5,0-.9-.1-1.3-.4-.4-.2-.7-.6-1-1s-.4-1-.4-1.7v-.2c0-.6.1-1.2.4-1.7.2-.5.6-.8,1-1,.4-.2.9-.4,1.3-.4s.7,0,.9.1.4.2.6.3.3.3.3.4h.2v-3.1h1.5v8.4h-1.5v-.7h-.2c-.1.2-.3.4-.6.6-.3.2-.7.3-1.2.3ZM383.6,228c.5,0,.9-.1,1.2-.4.3-.3.5-.7.5-1.3h0c0-.7-.2-1.1-.5-1.4-.3-.3-.7-.5-1.2-.5s-.9.1-1.2.5c-.3.3-.5.7-.5,1.3h0c0,.7.2,1.1.5,1.4.3.3.7.4,1.2.4Z"/>
          <path d="M393.5,229.1c-.5,0-.9,0-1.3-.3-.4-.2-.7-.4-.9-.8s-.3-.7-.3-1.2,0-.6.2-.9.3-.5.5-.6c.2-.2.5-.3.7-.4v-.2c-.4-.1-.7-.3-1-.6s-.4-.7-.4-1.2.1-.9.3-1.2.5-.6.9-.8.8-.3,1.3-.3h1.3v1.2h-1c-.4,0-.7,0-.9.3-.2.2-.4.5-.4.9s0,.5.2.6c.1.2.3.3.5.4.2,0,.4.1.6.1h1.2v-1.1h1.5v1.1h1.1v1.2h-1.1v3.6h-3ZM393.7,227.9h1.2v-2.4h-1.2c-.4,0-.6.1-.9.3-.2.2-.4.5-.4.9s.1.7.4.9.5.3.9.3Z"/>
        </g>
        <g class="cls-1">
          <path d="M403.3,229.1v-7h-2.4v-1.4h6.5v1.4h-2.4v7h-1.6Z"/>
        </g>
        <g class="cls-1">
          <path d="M409.3,229.3c-.4,0-.8,0-1.1-.2-.3-.1-.6-.4-.8-.6s-.3-.6-.3-1,0-.8.3-1c.2-.3.5-.5.8-.6.3-.1.7-.2,1.2-.2h1.6v-.3c0-.3,0-.5-.3-.7s-.5-.3-.8-.3-.7,0-.8.3c-.2.2-.3.4-.4.7l-1.4-.5c0-.3.2-.6.5-.8s.5-.5.9-.6c.4-.2.8-.2,1.3-.2.8,0,1.4.2,1.9.6.5.4.7,1,.7,1.7v2.2c0,.2.1.4.3.4h.5v1.2h-1c-.3,0-.5,0-.7-.2-.2-.1-.3-.3-.3-.6h0s-.2,0-.2,0c0,0-.1.2-.2.4s-.3.3-.5.4c-.2.1-.6.2-1,.2ZM409.5,228.1c.4,0,.8-.1,1-.4.3-.2.4-.5.4-.9h0c0-.1-1.5-.1-1.5-.1-.3,0-.5,0-.7.2s-.2.3-.2.5,0,.4.3.5c.2.1.4.2.7.2Z"/>
          <path d="M414.4,229.1v-6h1.5v.8h.2c0-.2.3-.4.5-.6.3-.2.7-.3,1.2-.3s.9.1,1.2.3c.3.2.6.5.8.9.2.4.3.8.3,1.3v3.6h-1.5v-3.4c0-.4-.1-.8-.3-1-.2-.2-.5-.3-.9-.3s-.8.2-1.1.5c-.3.3-.4.7-.4,1.3v3h-1.5Z"/>
          <path d="M421.8,229.1v-8.4h1.5v4.6h.2l2-2.2h2l-2.7,2.9,2.8,3.1h-1.9l-2.1-2.4h-.2v2.4h-1.5Z"/>
        </g>
      </g>
      <line class="cls-3" x1="332.5" y1="217.6" x2="427" y2="217.6"/>
      <line class="cls-3" x1="332.5" y1="232.1" x2="427" y2="232.1"/>
    </g>
  </g>
</svg>